<svg width="512" height="512" viewBox="0 0 512 512" fill="none" xmlns="http://www.w3.org/2000/svg">
<rect width="512" height="512" rx="30" fill="white"/>
<path d="M89.6367 376.652C91.0673 376.645 92.498 376.634 93.9286 376.621C95.9614 376.604 97.994 376.598 100.027 376.595C100.641 376.588 101.255 376.581 101.888 376.574C105.298 376.584 107.733 376.722 110.271 379.111C110.694 381.864 110.72 383.759 108.959 386.05C105.673 388.269 102.526 388.584 98.5723 388.572C98.0949 388.575 97.6175 388.578 97.1256 388.581C95.5567 388.589 93.9881 388.588 92.4192 388.587C91.3243 388.589 90.2295 388.592 89.1346 388.594C86.844 388.599 84.5535 388.598 82.2629 388.595C79.3296 388.592 76.3966 388.602 73.4633 388.615C71.204 388.624 68.9447 388.624 66.6853 388.623C65.6038 388.623 64.5223 388.626 63.4408 388.632C61.9288 388.639 60.4173 388.635 58.9054 388.628C58.4604 388.633 58.0154 388.637 57.5569 388.642C54.1905 388.609 52.2633 387.785 49.8337 385.651C48.7492 383.609 49.0243 382.418 49.7565 380.274C58.1242 373.405 79.2521 376.698 89.6367 376.652Z" fill="#14495D"/>
<path d="M51.6089 359.929C53.4496 359.731 53.4496 359.731 55.7818 359.759C56.1912 359.761 56.6007 359.764 57.0225 359.766C58.3314 359.776 59.6398 359.798 60.9485 359.82C61.8353 359.829 62.7222 359.837 63.609 359.844C65.7841 359.863 67.9589 359.893 70.1338 359.929C70.8043 363.83 70.8043 363.83 70.3267 365.342C69.3247 366.555 68.5594 366.91 67.0463 367.486C64.5703 367.745 62.0875 367.701 59.5977 367.704C58.9176 367.718 58.2374 367.732 57.5366 367.747C56.8851 367.749 56.2336 367.751 55.5623 367.754C54.9668 367.758 54.3714 367.763 53.7579 367.768C52.2264 367.486 52.2264 367.486 51.1037 366.418C50.1266 364.734 50.1602 363.564 50.3739 361.673C50.7814 361.097 51.189 360.522 51.6089 359.929Z" fill="#14495D"/>
<path d="M294.284 345.978C280.468 355.611 265.615 364.032 250.403 371.555C249.787 371.862 249.171 372.169 248.536 372.485C244.718 374.344 240.86 375.901 236.829 377.305C235.078 377.923 233.363 378.595 231.647 379.293C230.298 379.819 228.947 380.339 227.595 380.856C227.175 381.016 226.756 381.177 226.324 381.343C211.816 386.825 196.247 390.757 180.781 392.917C179.75 393.065 179.75 393.065 178.699 393.215C172.305 393.998 168.012 393.032 162.68 389.684C162.27 389.436 161.86 389.188 161.438 388.933C158.731 387.285 156.107 385.54 153.495 383.762C153.699 382.995 153.903 382.227 154.113 381.437C158.516 381.361 162.847 381.534 167.234 381.891C173.43 382.231 179.373 381.808 185.528 381.074C186.301 380.992 187.075 380.91 187.872 380.826C199.23 379.481 210.009 375.831 220.725 372.173C221.843 371.794 222.961 371.415 224.079 371.036C240.022 365.614 255.961 360.061 271.437 353.535C272.409 353.126 273.381 352.718 274.353 352.309C275.071 352.007 275.071 352.007 275.803 351.699C279.761 350.036 283.72 348.379 287.723 346.814C288.454 346.526 289.185 346.237 289.938 345.94C291.778 345.408 292.536 345.301 294.284 345.978Z" fill="#14495D"/>
<path d="M40.7643 340.53C43.175 342.633 44.0624 344.368 44.4693 347.432C44.0673 350.459 42.3656 352.763 39.8767 354.698C37.5759 355.42 35.474 355.591 33.0842 355.28C30.711 354.099 28.7919 352.886 27.5267 350.629C26.6424 347.3 26.7838 345.3 28.6267 342.317C31.4911 338.557 36.6572 338.702 40.7643 340.53Z" fill="#14495D"/>
<path d="M409.216 332.573C410.374 333.772 410.374 333.772 410.555 335.118C409.89 340.85 403.206 346.42 399.259 350.629C398.779 351.146 398.299 351.663 397.805 352.196C393.124 357.171 388.291 361.815 382.7 365.888C381.237 366.949 381.237 366.949 379.654 368.54C376.014 371.871 371.884 371.947 367.072 372.354C361.469 372.895 356.676 373.56 351.712 376.205C352.355 376.038 352.998 375.87 353.661 375.697C359.929 374.141 365.621 373.585 372.089 373.88C371.563 376.338 370.31 377.473 368.384 379.112C367.995 379.46 367.606 379.809 367.205 380.168C364.122 382.859 360.874 385.08 357.344 387.225C355.486 388.37 353.702 389.582 351.905 390.81C341.64 397.524 329.331 404.583 317.132 407.595C315.75 407.34 315.75 407.34 314.662 407.013C319.157 401.831 324.595 397.845 330.1 393.644C327.785 394.632 325.755 395.966 323.693 397.35C323.316 397.601 322.938 397.853 322.549 398.113C319.375 400.27 316.42 402.625 313.572 405.153C308.528 409.447 302.044 411.068 295.597 412.645C294.929 412.816 294.261 412.987 293.573 413.163C286.635 414.896 279.863 415.977 272.673 415.733C272.673 415.349 272.673 414.965 272.673 414.57C273.763 413.837 273.763 413.837 275.297 413.008C275.859 412.7 276.422 412.393 277.002 412.076C277.611 411.748 278.22 411.42 278.848 411.082C280.1 410.398 281.352 409.713 282.603 409.027C283.225 408.687 283.846 408.347 284.486 407.996C286.895 406.66 289.262 405.265 291.622 403.853C294.165 402.333 296.696 400.894 299.379 399.602C307.239 395.672 314.673 390.335 321.455 384.925C313.636 388.106 306.372 391.954 299.139 396.164C298.396 396.596 297.653 397.029 296.909 397.461C296.54 397.676 296.171 397.89 295.791 398.112C293.217 399.602 290.618 401.042 287.994 402.452C287.635 402.645 287.276 402.838 286.905 403.037C285.209 403.947 283.508 404.851 281.805 405.75C276.845 408.399 272.134 411.337 267.81 414.849C264.617 416.311 261.347 415.996 257.853 415.914C257.135 415.909 256.417 415.903 255.677 415.897C252.417 415.857 249.332 415.711 246.12 415.151C247.804 413.32 249.943 412.242 252.141 411.046C255.87 408.981 259.497 406.809 263.077 404.522C268.847 400.842 274.764 397.442 280.816 394.189C282.242 393.419 283.667 392.648 285.092 391.877C285.45 391.684 285.808 391.491 286.177 391.291C289.688 389.393 293.183 387.468 296.678 385.542C302.068 382.578 307.47 379.634 312.887 376.714C313.249 376.519 313.611 376.324 313.984 376.123C319.571 373.115 325.197 370.179 330.872 367.321C331.388 367.06 331.903 366.799 332.435 366.53C332.881 366.306 333.327 366.082 333.787 365.852C335.109 365.123 336.302 364.303 337.51 363.417C325.864 367.593 314.932 372.191 304.453 378.556C300.097 381.157 295.51 383.321 290.921 385.53C286.728 387.556 282.612 389.668 278.539 391.9C273.813 394.49 269.012 396.895 264.143 399.239C258.502 401.96 253.106 404.882 247.788 408.123C245.027 409.79 242.208 411.35 239.328 412.826C238.908 413.043 238.489 413.259 238.057 413.482C230.275 416.878 217.79 412.705 210.139 410.285C204.894 408.451 204.894 408.451 204.131 407.013C206.589 406.417 209.035 405.842 211.528 405.392C228.343 402.301 247.197 394.622 260.94 384.925C260.94 384.541 260.94 384.157 260.94 383.762C257.822 384.079 255.38 385.089 252.643 386.45C251.755 386.878 250.868 387.305 249.98 387.731C249.536 387.945 249.093 388.159 248.636 388.379C207.494 408.109 207.494 408.109 194.446 404.67C193.67 404.395 192.897 404.11 192.128 403.816C191.713 403.665 191.299 403.513 190.871 403.356C185.923 401.505 181.127 399.328 176.343 397.132C176.343 396.556 176.343 395.981 176.343 395.388C177.127 395.406 177.911 395.424 178.719 395.442C181.995 395.437 185.121 395.034 188.346 394.516C188.972 394.415 189.598 394.315 190.244 394.211C204.059 391.896 217.785 389.057 230.683 383.762C231.339 383.498 231.996 383.234 232.672 382.962C244.452 378.214 255.548 373.05 266.326 366.539C296.85 348.116 328.153 332.502 364.467 327.576C365.777 327.396 367.08 327.195 368.384 326.985C381.875 324.973 397.281 325.607 409.216 332.573ZM349.667 344.961C349.169 345.076 348.672 345.191 348.16 345.309C340.357 347.12 332.667 349.065 325.16 351.791C324.304 352.102 324.304 352.102 323.43 352.419C311.547 356.798 300.006 361.982 288.998 368.065C285.931 369.748 282.818 371.352 279.705 372.957C278.384 373.643 277.072 374.341 275.76 375.043C275.288 375.287 274.816 375.531 274.329 375.782C273.876 376.027 273.424 376.273 272.957 376.526C272.547 376.743 272.136 376.961 271.714 377.185C271.419 377.437 271.124 377.689 270.82 377.949C270.82 378.717 270.82 379.484 270.82 380.274C273.618 379.969 275.467 379.32 277.844 377.913C280.618 376.333 283.421 374.89 286.335 373.553C290.867 371.465 295.295 369.212 299.727 366.941C328.006 352.551 358.068 345.403 389.997 342.491C389.997 342.107 389.997 341.724 389.997 341.328C386.42 340.757 382.931 340.621 379.306 340.602C378.771 340.59 378.236 340.578 377.684 340.565C368.206 340.514 358.813 342.835 349.667 344.961Z" fill="#14495D"/>
<path d="M35.5547 286.688C35.9622 286.688 36.3698 286.688 36.7897 286.688C37.1192 287.258 37.4488 287.828 37.7883 288.416C44.8044 300.435 53.2252 311.1 63.342 320.984C63.7538 321.387 64.1657 321.791 64.59 322.206C70.2142 327.687 75.7934 332.931 82.4844 337.26C82.8516 337.502 83.2189 337.745 83.5973 337.995C115.837 359.134 153.234 365.626 191.816 359.637C211.844 356.12 230.776 348.674 249.208 340.747C249.932 340.437 250.655 340.127 251.401 339.807C266.571 333.284 281.592 326.405 296.292 318.986C307.55 313.332 319.266 308.598 331.335 304.708C332.08 304.467 332.824 304.227 333.591 303.979C339.253 302.203 344.9 301.02 350.787 300.124C352.185 299.911 353.581 299.687 354.976 299.463C382.386 295.114 409.616 298.715 432.573 314.064C436.726 316.914 440.613 319.971 444.337 323.309C444.88 323.755 444.88 323.755 445.434 324.21C456.731 333.894 463.482 349.539 464.256 363.629C464.457 369.178 463.898 373.915 461.627 379.112C461.41 379.624 461.194 380.136 460.971 380.663C456.758 389.544 448.057 395.257 438.78 398.876C436.511 399.513 434.343 399.857 431.987 400.038C431.465 400.086 430.943 400.133 430.405 400.181C421 400.616 412.896 397.361 405.898 391.682C400.763 387.153 397.123 382.327 396.713 375.502C396.515 367.939 399.135 360.708 404.755 355.139C408.797 351.956 413.304 350.04 418.614 350.37C424.581 351.312 429.263 354.162 432.882 358.735C434.676 361.663 435.261 364.759 434.457 368.068C432.53 371.478 429.744 374.354 425.812 375.624C421.735 376.625 418.02 377.37 414.08 375.624C410.532 373.303 408.345 370.887 407.287 366.905C406.88 366.713 406.472 366.522 406.052 366.324C406.002 367.983 405.965 369.641 405.936 371.301C405.921 371.766 405.905 372.231 405.889 372.71C405.823 377.848 407.83 381.79 411.61 385.506C416.296 389.113 422.269 390.903 428.318 390.663C434.592 389.754 439.806 387.063 443.671 382.3C448.372 375.754 448.966 369.251 447.463 361.528C445.761 355.216 441.916 349.081 437.06 344.458C436.31 343.654 436.31 343.654 436.31 342.491C435.736 342.275 435.736 342.275 435.152 342.055C433.59 341.191 433.396 340.494 432.605 339.004C431.79 338.601 430.965 338.215 430.135 337.841C429.443 337.392 428.764 336.926 428.096 336.447C416.155 328.07 403.102 321.485 388.145 319.821C387.565 319.757 386.986 319.692 386.389 319.626C381.215 319.142 376.047 319.144 370.855 319.24C370.443 319.244 370.032 319.248 369.607 319.253C363.352 319.337 357.293 320.111 351.134 321.129C350.451 321.241 349.768 321.353 349.065 321.468C338.801 323.249 329.079 326.015 319.363 329.571C317.713 330.175 316.06 330.769 314.406 331.362C307.807 333.742 301.33 336.319 294.894 339.065C261.187 353.365 224.823 368.676 188.076 373.881C187.188 374.011 187.188 374.011 186.282 374.144C153.739 378.831 120.037 372.846 91.7468 357.023C91.3443 356.803 90.9419 356.583 90.5272 356.357C81.719 351.53 74.0457 345.489 66.5525 339.01C65.1567 337.808 63.7299 336.645 62.3 335.48C59.7321 333.324 57.4917 331.045 55.3146 328.54C54.7996 327.961 54.2845 327.382 53.7539 326.785C43.8004 315.393 36.3197 301.666 35.5547 286.688Z" fill="#14495D"/>
<path d="M42.3464 229.722C43.3049 231.761 43.7835 233.526 43.9987 235.743C44.0621 236.339 44.1255 236.934 44.1909 237.548C44.2572 238.178 44.3235 238.809 44.3918 239.458C45.0585 245.113 46.0614 250.339 48.0359 255.711C48.5931 257.239 49.1185 258.775 49.6454 260.312C53.4029 271.088 58.2819 279.599 65.8112 288.431C66.1037 288.775 66.3963 289.118 66.6977 289.472C72.5097 296.234 78.8737 302.272 86.1886 307.614C86.5556 307.884 86.9227 308.155 87.3009 308.434C108.943 324.333 133.959 331.113 161.33 331.156C161.839 331.158 162.348 331.161 162.873 331.164C174.501 331.188 185.464 329.22 196.682 326.469C197.198 326.344 197.715 326.218 198.248 326.089C216.146 321.722 232.735 315.186 249.243 307.414C250.974 306.6 252.709 305.795 254.444 304.989C261.292 301.785 267.897 298.331 274.408 294.555C277.018 293.048 279.696 291.734 282.458 290.491C284.49 289.555 286.477 288.557 288.469 287.55C293.619 284.951 298.828 282.574 304.177 280.36C306.841 279.256 309.435 278.106 311.999 276.806C341.204 262.847 377.264 258.395 408.669 267.855C411.554 268.787 414.369 269.848 417.166 270.993C417.569 271.156 417.971 271.32 418.385 271.489C429.795 276.249 440.699 282.833 449.894 290.757C450.579 291.277 451.266 291.797 451.954 292.314C452.768 292.982 452.768 292.982 453.599 293.663C453.599 294.047 453.599 294.43 453.599 294.826C454.414 295.209 455.229 295.593 456.069 295.988C456.069 296.372 456.069 296.755 456.069 297.151C456.884 297.534 457.699 297.918 458.539 298.313C458.539 298.697 458.539 299.081 458.539 299.476C458.946 299.476 459.354 299.476 459.774 299.476C460.629 300.449 460.629 300.449 461.612 301.819C461.973 302.322 462.334 302.825 462.706 303.344C463.279 304.162 463.279 304.162 463.865 304.998C464.254 305.554 464.644 306.109 465.046 306.682C471.616 316.185 476.36 325.867 477.681 337.259C477.735 337.691 477.788 338.123 477.843 338.567C478.254 342.065 478.396 345.513 478.376 349.03C478.374 349.56 478.371 350.089 478.369 350.635C478.322 356.532 478.259 362.378 476.446 368.067C476.038 368.067 475.631 368.067 475.211 368.067C475.093 367.675 474.975 367.283 474.853 366.879C474.307 365.07 473.756 363.263 473.204 361.455C473.019 360.839 472.833 360.222 472.642 359.586C470.986 354.179 469.077 349.122 466.026 344.271C464.5 341.822 463.006 339.365 461.587 336.86C449.706 316.374 429.662 300.812 406.051 293.663C394.975 290.693 383.885 289.36 372.398 289.412C371.671 289.414 371.671 289.414 370.929 289.416C362.766 289.445 354.806 289.881 346.772 291.338C346.251 291.431 345.73 291.525 345.193 291.621C323.643 295.655 303.654 304.313 284.405 314.008C283.485 314.464 282.566 314.92 281.645 315.375C274.94 318.695 268.304 322.15 261.828 325.852C236.521 339.785 208.234 348.505 179.43 352.954C178.943 353.031 178.456 353.108 177.953 353.188C162.47 355.578 146.445 353.978 131.266 350.629C130.553 350.473 130.553 350.473 129.826 350.313C108.947 345.615 91.0549 334.084 75.0737 320.983C74.2916 320.355 74.2916 320.355 73.4937 319.714C70.4416 317.228 67.7686 314.604 65.1937 311.683C64.5896 311.026 64.5896 311.026 63.9732 310.357C48.0598 292.707 37.9303 272.454 37.8695 249.158C37.8683 248.776 37.867 248.393 37.8658 247.999C37.861 241.969 38.1842 236.138 39.8764 230.303C40.4939 229.722 40.4939 229.722 42.3464 229.722Z" fill="#14495D"/>
<path d="M49.1467 195.189C50.1052 197.229 50.5838 198.994 50.7989 201.211C50.8624 201.807 50.9258 202.402 50.9912 203.016C51.0575 203.646 51.1238 204.276 51.1921 204.926C51.8588 210.581 52.8617 215.807 54.8362 221.179C55.3934 222.707 55.9188 224.243 56.4457 225.78C60.2032 236.555 65.0822 245.067 72.6115 253.899C72.904 254.243 73.1966 254.586 73.4979 254.94C79.31 261.702 85.674 267.739 92.9889 273.082C93.3559 273.352 93.723 273.623 94.1011 273.902C115.743 289.801 140.759 296.581 168.13 296.624C168.639 296.626 169.148 296.629 169.673 296.631C181.301 296.656 192.264 294.688 203.482 291.937C203.999 291.811 204.515 291.686 205.048 291.557C222.946 287.19 239.535 280.653 256.044 272.882C257.775 272.068 259.509 271.262 261.244 270.457C268.093 267.253 274.697 263.798 281.208 260.023C283.818 258.515 286.497 257.202 289.258 255.959C291.29 255.023 293.277 254.025 295.269 253.018C300.42 250.419 305.628 248.042 310.978 245.827C313.642 244.723 316.235 243.573 318.799 242.273C348.004 228.315 384.064 223.863 415.469 233.323C418.354 234.255 421.17 235.316 423.967 236.461C424.369 236.624 424.771 236.788 425.185 236.956C436.595 241.717 447.499 248.301 456.694 256.224C457.379 256.745 458.066 257.264 458.754 257.782C459.568 258.45 459.568 258.45 460.399 259.131C460.399 259.514 460.399 259.898 460.399 260.293C461.214 260.677 462.029 261.061 462.869 261.456C462.869 261.839 462.869 262.223 462.869 262.618C463.684 263.002 464.499 263.386 465.339 263.781C465.339 264.165 465.339 264.548 465.339 264.944C465.746 264.944 466.154 264.944 466.574 264.944C467.429 265.917 467.429 265.917 468.412 267.287C468.773 267.79 469.134 268.293 469.506 268.811C470.08 269.63 470.08 269.63 470.665 270.466C471.055 271.021 471.445 271.577 471.847 272.15C478.417 281.653 483.16 291.335 484.481 302.727C484.535 303.159 484.588 303.59 484.644 304.035C485.055 307.533 485.196 310.98 485.176 314.498C485.174 315.028 485.172 315.557 485.17 316.103C485.122 322 485.059 327.846 483.246 333.535C482.839 333.535 482.431 333.535 482.011 333.535C481.893 333.143 481.775 332.751 481.654 332.347C481.107 330.538 480.556 328.73 480.004 326.923C479.819 326.306 479.633 325.69 479.442 325.054C477.786 319.646 475.877 314.59 472.826 309.739C471.3 307.29 469.806 304.833 468.388 302.327C456.506 281.841 436.462 266.28 412.852 259.131C401.776 256.161 390.685 254.828 379.198 254.88C378.471 254.882 378.471 254.882 377.73 254.883C369.566 254.913 361.606 255.349 353.572 256.806C353.051 256.899 352.53 256.993 351.993 257.089C330.443 261.123 310.454 269.781 291.205 279.476C290.286 279.932 289.366 280.388 288.446 280.843C281.741 284.163 275.104 287.617 268.628 291.319C243.322 305.253 215.035 313.972 186.231 318.422C185.743 318.499 185.256 318.576 184.754 318.656C169.27 321.046 153.246 319.446 138.066 316.097C137.353 315.94 137.353 315.94 136.626 315.781C115.747 311.082 97.8552 299.551 81.8739 286.451C81.0919 285.823 81.0919 285.823 80.294 285.182C77.2419 282.696 74.5689 280.072 71.994 277.151C71.3899 276.494 71.3899 276.494 70.7735 275.824C54.8601 258.175 44.7306 237.922 44.6698 214.626C44.6686 214.244 44.6673 213.861 44.6661 213.467C44.6613 207.436 44.9845 201.606 46.6767 195.771C47.2942 195.189 47.2942 195.189 49.1467 195.189Z" fill="#14495D"/>
<path d="M471.506 205.889C474.214 207.163 475.91 208.465 477.064 211.121C477.509 214.83 476.968 216.841 474.594 219.84C471.921 221.573 469.777 221.955 466.566 221.584C464.341 220.78 462.639 219.679 461.048 217.987C460.11 215.651 459.976 213.586 460.392 211.121C462.825 206.539 466.257 205.105 471.506 205.889Z" fill="#14495D"/>
<path d="M447.154 205.744C449.842 208.08 449.842 208.08 450.511 209.377C450.511 211.899 450.343 213.024 448.427 214.827C445.705 216.413 443.158 216.737 440.014 216.353C437.642 215.586 435.697 214.559 433.839 212.974C432.92 211.082 432.949 209.684 433.221 207.634C436.424 203.683 442.694 203.682 447.154 205.744Z" fill="#14495D"/>
<path d="M435.498 183.582C437.582 183.596 438.675 183.931 440.284 185.181C441.99 186.826 442.413 187.271 442.677 189.504C442.439 191.781 441.685 192.643 440.014 194.263C437.861 195.276 435.57 195.176 433.221 194.844C431.33 193.646 431.33 193.646 430.134 191.938C429.681 189.337 429.931 188.201 431.33 185.907C433.077 183.814 433.077 183.814 435.498 183.582Z" fill="#14495D"/>
<path d="M460.392 181.475C462.209 182.231 462.758 182.868 464.097 184.381C464.746 185.981 464.933 187.331 464.714 189.031C463.499 191.238 462.588 192.303 460.392 193.682C458.467 194.071 456.758 194.082 454.834 193.682C453.122 192.574 452.081 191.344 451.129 189.613C450.641 186.991 450.913 185.91 452.287 183.582C454.532 180.971 456.998 181.014 460.392 181.475Z" fill="#14495D"/>
<path d="M259.242 97.0075C259.989 97.004 259.989 97.004 260.751 97.0004C271.073 96.9777 280.94 97.8742 290.966 100.277C291.741 100.459 292.516 100.641 293.314 100.828C306.684 104.005 319.572 108.318 331.952 114.046C332.638 114.354 333.323 114.662 334.029 114.98C343.925 119.503 353.31 124.822 362.21 130.904C362.564 131.146 362.919 131.387 363.285 131.637C370.925 136.893 377.608 143.031 384.324 149.287C384.823 149.749 385.321 150.211 385.835 150.687C386.526 151.336 386.526 151.336 387.23 151.998C387.645 152.386 388.059 152.774 388.487 153.173C389.38 154.155 389.38 154.155 389.38 155.318C389.787 155.318 390.195 155.318 390.614 155.318C395.77 160.524 400.084 166.547 404.199 172.502C404.445 172.855 404.691 173.209 404.945 173.573C406.669 176.104 406.669 176.104 406.669 177.406C407.077 177.406 407.484 177.406 407.904 177.406C408.946 178.879 409.903 180.343 410.837 181.875C411.254 182.553 411.254 182.553 411.679 183.244C418.478 194.451 422.086 206.186 425.194 218.678C425.31 219.133 425.426 219.587 425.545 220.056C427.27 226.848 427.27 226.848 426.429 229.141C424.059 228.463 421.802 227.623 419.533 226.695C411.848 223.554 404.357 220.95 396.172 219.259C395.382 219.088 394.593 218.917 393.779 218.741C362.296 212.337 330.295 219.018 301.695 232.047C301.255 232.247 300.814 232.447 300.36 232.653C297.879 233.788 295.414 234.951 292.962 236.141C291.858 236.676 290.751 237.206 289.644 237.735C280.652 242.126 271.964 247.137 263.565 252.465C263.202 252.695 262.839 252.924 262.465 253.161C262.1 253.392 261.736 253.623 261.36 253.861C260.603 254.341 259.845 254.82 259.088 255.298C258.679 255.557 258.27 255.816 257.849 256.082C225.704 276.239 186.92 289.949 148.062 282.838C131.81 279.721 106.901 274.625 96.1969 261.497C92.7283 256.456 92.1723 251.467 92.1783 245.564C92.1757 244.977 92.173 244.39 92.1703 243.785C92.1668 242.547 92.1664 241.308 92.1691 240.07C92.1711 238.21 92.1566 236.351 92.1409 234.491C92.1168 227.286 92.6337 220.496 94.2165 213.446C94.3584 212.795 94.5002 212.144 94.6463 211.473C95.0416 209.737 95.4678 208.013 95.9147 206.289C96.0728 205.678 96.2309 205.068 96.3938 204.439C98.9265 194.907 102.207 186.046 107.184 177.406C107.66 176.541 107.66 176.541 108.146 175.658C113.668 165.769 121.102 156.668 129.264 148.585C130.651 147.235 130.651 147.235 131.686 145.829C132.09 145.346 132.09 145.346 132.501 144.854C132.909 144.854 133.316 144.854 133.736 144.854C133.736 144.471 133.736 144.087 133.736 143.692C134.578 142.893 134.578 142.893 135.782 141.948C137.832 140.314 139.806 138.63 141.764 136.898C146.038 133.227 150.67 130.031 155.349 126.835C155.917 126.444 156.485 126.054 157.071 125.652C166.706 119.167 176.882 114.376 187.806 110.159C188.824 109.765 188.824 109.765 189.862 109.364C212.26 100.857 235.156 97.0924 259.242 97.0075ZM307.407 122.62C305.415 125.996 305.417 130.369 306.389 134.058C307.065 135.814 307.692 137.13 309.105 138.46C310.893 138.676 311.809 138.731 313.273 137.697C314.983 135.525 314.765 133.29 314.778 130.686C314.791 129.546 314.791 129.546 314.805 128.383C314.642 125.942 314.136 124.268 312.617 122.293C311.571 121.496 311.571 121.496 310.031 121.349C308.421 121.471 308.421 121.471 307.407 122.62ZM332.826 135.429C330.272 138.702 329.966 140.946 330.1 144.854C330.831 145.659 330.831 145.659 332.879 145.726C336.488 145.684 338.76 143.678 341.215 141.367C343.545 138.797 343.935 136.351 343.772 133.068C343.743 132.737 343.714 132.407 343.685 132.066C339.557 130.123 335.598 132.492 332.826 135.429ZM240.1 137.407C239.779 137.687 239.458 137.968 239.128 138.257C238.081 139.191 238.081 139.191 236.858 140.785C236.93 143.022 237.72 144.383 239.328 146.017C239.736 146.017 240.143 146.017 240.563 146.017C240.729 146.377 240.894 146.736 241.065 147.107C241.771 148.516 241.771 148.516 243.651 149.505C246.636 149.434 248.29 147.842 250.327 145.981C250.637 145.706 250.947 145.431 251.267 145.149C252.026 144.474 252.779 143.793 253.53 143.111C252.71 140.816 251.711 139.444 249.864 137.77C249.438 137.378 249.012 136.986 248.574 136.583C244.855 133.442 243.307 134.4 240.1 137.407ZM278.848 134.391C278.2 136.04 277.942 136.758 278.23 138.46C280.568 141.711 283.697 144.889 287.493 146.598C289.784 146.841 289.784 146.841 291.815 146.598C292.613 145.968 292.613 145.968 292.626 144.455C292.238 140.584 289.33 138.229 286.316 135.836C283.895 134.22 281.756 133.479 278.848 134.391ZM176.961 141.367C175.028 144.382 174.785 146.882 174.684 150.304C174.663 150.787 174.642 151.271 174.62 151.769C174.569 152.951 174.529 154.134 174.491 155.318C174.104 154.989 173.717 154.66 173.319 154.321C172.814 153.894 172.309 153.468 171.789 153.029C171.288 152.604 170.786 152.179 170.27 151.741C168.662 150.449 168.039 150.114 165.923 149.941C163.762 150.104 162.942 150.29 161.524 151.83C161.214 153.742 161.362 154.947 162.141 156.734C164.269 159.301 167.028 161.277 169.672 163.362C173.141 166.309 174.301 169.032 175.108 173.337C174.401 172.756 173.693 172.175 172.986 171.594C172.535 171.226 172.085 170.858 171.621 170.479C170.65 169.67 169.695 168.844 168.755 168.004C165.056 164.708 165.056 164.708 160.289 163.456C158.413 163.875 158.413 163.875 157.201 165.199C156.581 167.107 156.581 167.107 157.201 169.268C159.814 172.726 163.313 175.601 166.618 178.46C167.483 179.214 168.348 179.969 169.213 180.724C169.59 181.05 169.967 181.377 170.355 181.713C170.701 182.018 171.047 182.324 171.404 182.638C171.749 182.928 172.095 183.219 172.451 183.518C173.771 184.935 173.501 186.367 173.488 188.196C173.495 189.205 173.495 189.205 173.502 190.233C173.421 190.796 173.34 191.359 173.256 191.939C171.404 193.101 171.404 193.101 170.231 192.966C167.61 192.064 165.207 190.754 162.759 189.504C162.201 189.231 161.644 188.958 161.07 188.677C157.903 187.06 155.661 185.82 154.114 182.638C153.36 180.227 152.78 177.793 152.223 175.336C151.924 174.038 151.621 172.741 151.313 171.446C151.183 170.875 151.054 170.303 150.92 169.714C150.366 167.971 149.701 166.666 148.556 165.199C146.704 164.812 146.704 164.812 144.851 165.199C143.764 165.879 143.764 165.879 142.999 166.943C142.744 168.291 142.744 168.291 142.818 169.784C142.824 170.329 142.83 170.874 142.836 171.436C142.851 172.003 142.867 172.571 142.883 173.156C142.891 173.73 142.9 174.304 142.908 174.896C142.93 176.315 142.961 177.732 142.999 179.15C140.181 176.862 139.468 174.317 138.331 171.067C137.331 169.046 136.29 168.185 134.354 166.943C133.095 167.329 133.095 167.329 131.884 168.106C131.452 169.376 131.452 169.376 131.421 170.794C131.386 171.269 131.351 171.744 131.315 172.234C131.299 172.598 131.283 172.962 131.266 173.337C130.96 173.163 130.653 172.988 130.338 172.808C128.048 171.602 126.649 171.012 123.972 171.012C122.01 171.461 122.01 171.461 120.769 172.574C119.887 174.494 120.042 175.434 120.769 177.406C123.766 180.123 127.23 181.856 130.88 183.692C131.453 183.983 132.025 184.275 132.615 184.576C134.016 185.29 135.419 186 136.824 186.707C136.41 186.861 135.996 187.015 135.569 187.173C135.021 187.378 134.473 187.583 133.908 187.795C133.366 187.996 132.825 188.198 132.267 188.406C127.606 190.115 127.606 190.115 123.856 193.101C123.856 195.226 124.088 196.214 125.67 197.751C130.247 199.158 135.581 196.689 139.982 195.29C141.186 194.916 142.396 194.586 143.616 194.264C144.361 194.057 145.106 193.85 145.874 193.637C149.892 193.241 153.465 195.835 156.815 197.642C157.555 198.028 158.296 198.413 159.037 198.797C164.37 201.594 164.37 201.594 165.846 202.983C165.736 204.144 165.736 204.144 165.229 205.308C163.744 206.217 162.32 206.987 160.752 207.742C156.593 209.814 152.902 212.124 149.212 214.867C146.31 216.254 144.001 215.652 141.036 214.806C139.164 214.212 137.313 213.57 135.465 212.914C132.185 211.814 129.195 211.312 125.709 211.702C124.041 212.487 123.483 212.987 122.66 214.536C122.603 216.364 123.343 217.209 124.474 218.678C128.056 220.906 131.892 222.562 136.206 222.747C136.206 223.13 136.206 223.514 136.206 223.909C135.672 224.055 135.138 224.2 134.588 224.35C132.38 225.114 130.696 226.076 128.758 227.324C128.139 227.718 127.521 228.112 126.884 228.519C123.075 230.863 123.075 230.863 120.769 234.372C120.511 236.165 120.511 236.165 120.769 237.86C123.087 239.314 124.879 239.433 127.561 239.023C129.56 238.283 131.358 237.3 133.196 236.261C133.673 236.004 134.15 235.746 134.641 235.48C137.288 234.037 139.856 232.51 142.381 230.885C142.279 231.436 142.177 231.988 142.072 232.556C141.574 235.952 141.075 239.385 142.651 242.547C143.828 244.043 143.828 244.043 145.662 244.508C147.485 244.41 147.485 244.41 148.587 242.736C149.797 240.756 150.401 239.115 150.961 236.902C151.156 236.173 151.352 235.445 151.553 234.695C151.851 233.554 152.145 232.414 152.43 231.271C154.618 222.61 158.729 218.958 166.591 214.4C168.707 213.288 169.82 212.847 172.291 212.974C173.873 213.446 173.873 213.446 174.491 214.027C175.629 223.415 175.629 223.415 173.287 226.825C171.701 228.132 170.081 229.22 168.316 230.303C167.416 231.028 166.527 231.766 165.653 232.519C164.338 233.603 163.02 234.633 161.639 235.644C159.394 237.395 158.53 238.306 158.166 241.093C158.245 243.079 158.245 243.079 159.44 244.254C161.491 245.067 162.463 244.827 164.611 244.254C166.245 243.222 167.675 242.013 169.126 240.766C169.517 240.441 169.907 240.116 170.31 239.781C172.124 238.272 172.124 238.272 173.873 236.697C173.901 239.961 173.376 241.517 170.943 243.882C169.988 244.743 169.022 245.594 168.046 246.434C167.079 247.288 166.115 248.145 165.154 249.004C164.724 249.376 164.295 249.749 163.853 250.132C162.309 251.68 161.603 252.939 161.331 255.044C161.418 256.464 161.418 256.464 162.218 257.515C164.02 258.589 164.971 258.542 167.081 258.205C168.856 257.181 170.423 255.969 172.021 254.717C172.842 254.134 173.666 253.552 174.491 252.973C174.481 253.381 174.472 253.788 174.462 254.208C174.423 256.061 174.399 257.914 174.375 259.767C174.36 260.408 174.344 261.049 174.328 261.71C174.322 262.33 174.316 262.95 174.31 263.589C174.3 264.158 174.291 264.727 174.281 265.314C174.53 267.225 175.129 268.292 176.343 269.831C178.078 270.795 178.078 270.795 180.048 270.993C182.249 270.098 183.03 269.399 184.371 267.505C184.477 265.896 184.515 264.353 184.487 262.746C184.486 262.322 184.486 261.897 184.485 261.46C184.461 258.588 184.181 255.816 183.753 252.973C184.089 253.254 184.424 253.534 184.769 253.823C185.211 254.19 185.652 254.557 186.108 254.935C186.545 255.299 186.982 255.664 187.432 256.039C189.123 257.384 190.161 258.167 192.398 258.387C194.208 258.333 194.208 258.333 195.409 257.551C196.442 255.93 196.322 254.841 196.103 252.973C194.921 251.333 194.921 251.333 193.286 249.849C192.443 249.024 192.443 249.024 191.583 248.182C191.037 247.653 190.491 247.124 189.928 246.579C189.111 245.713 188.299 244.842 187.497 243.963C186.553 242.932 185.652 241.967 184.569 241.064C183.205 239.594 183.642 237.975 183.753 236.116C184.097 236.418 184.441 236.72 184.795 237.031C190.114 241.926 190.114 241.926 196.952 243.927C199.214 243.89 199.214 243.89 200.426 242.51C200.674 240.726 200.805 239.578 200.426 237.86C199.223 236.456 198.253 235.517 196.798 234.409C196.435 234.114 196.072 233.82 195.698 233.516C194.959 232.917 194.216 232.323 193.468 231.734C191.927 230.51 190.449 229.225 188.964 227.942C187.027 226.279 187.027 226.279 184.849 224.933C183.113 223.31 183.311 221.368 183.252 219.186C183.228 218.755 183.205 218.324 183.181 217.881C183.131 216.791 183.129 215.699 183.136 214.609C183.753 214.027 183.753 214.027 185.425 213.889C187.73 214.046 188.974 214.591 190.975 215.66C191.621 215.998 192.266 216.337 192.931 216.685C193.596 217.043 194.261 217.401 194.946 217.769C196.271 218.473 197.597 219.175 198.925 219.874C199.51 220.188 200.094 220.501 200.696 220.824C202.076 221.487 203.236 221.894 204.748 222.165C204.846 222.93 204.846 222.93 204.946 223.711C205.192 225.616 205.445 227.52 205.702 229.424C205.811 230.246 205.919 231.068 206.023 231.89C206.175 233.077 206.335 234.263 206.497 235.449C206.591 236.161 206.685 236.873 206.781 237.607C207.361 240.258 208.261 242.329 210.306 244.254C212.179 244.202 212.179 244.202 214.011 243.673C215.457 241.63 215.412 240.748 215.4 238.332C215.403 237.701 215.406 237.069 215.41 236.418C215.221 234.059 214.677 232.001 214.011 229.722C214.523 229.99 214.523 229.99 215.046 230.263C216.63 231.089 218.215 231.913 219.8 232.737C220.337 233.018 220.874 233.299 221.428 233.588C223.067 234.439 224.712 235.281 226.361 236.116C226.911 236.397 227.462 236.678 228.029 236.967C228.563 237.23 229.096 237.493 229.646 237.765C230.12 238.001 230.595 238.237 231.084 238.481C233.538 239.396 236.123 239.467 238.711 239.023C240.169 237.874 240.169 237.874 240.331 235.716C240.285 234.127 240.131 233.421 239.044 232.186C235.857 229.624 232.575 227.737 228.831 225.98C228.293 225.721 227.756 225.462 227.202 225.195C225.896 224.567 224.586 223.945 223.273 223.328C225.792 221.747 228.508 220.943 231.342 219.967C233.191 219.371 233.191 219.371 234.388 218.096C234.606 215.742 234.341 214.333 233.153 212.283C227.918 212.686 223.047 213.902 217.989 215.192C217.354 215.349 216.718 215.505 216.063 215.667C215.205 215.885 215.205 215.885 214.328 216.107C207.384 217.203 197.193 207.658 191.781 204.145C192.797 202.06 193.608 201.308 195.756 200.185C198.726 198.591 201.603 196.894 204.473 195.145C208.003 193.085 209.951 192.932 214.011 193.682C215.962 194.18 217.858 194.786 219.761 195.426C220.723 195.742 221.686 196.057 222.648 196.371C223.066 196.51 223.483 196.65 223.913 196.793C226.232 197.514 228.313 197.855 230.76 197.897C231.297 197.912 231.833 197.927 232.386 197.942C232.843 197.879 233.3 197.816 233.771 197.751C235.212 195.716 235.421 194.915 235.006 192.52C232.279 190.485 229.387 189.393 226.129 188.305C225.675 188.15 225.22 187.994 224.752 187.833C223.643 187.454 222.532 187.08 221.421 186.707C223.948 183.758 227.548 182.873 231.193 181.578C234.542 180.328 237.611 178.912 239.946 176.244C240.308 174.352 240.308 174.352 239.946 172.756C239.538 172.756 239.13 172.756 238.711 172.756C238.711 172.372 238.711 171.989 238.711 171.594C234.236 171.204 231.45 172.418 227.596 174.5C227.655 174.143 227.713 173.785 227.774 173.417C227.843 172.947 227.911 172.477 227.982 171.993C228.053 171.528 228.125 171.063 228.199 170.583C228.346 169.101 228.346 169.101 226.978 167.525C225.208 167.543 225.208 167.543 223.273 168.106C220.812 171.095 219.546 174.402 218.123 177.904C217.001 179.905 216.159 180.535 214.011 181.475C214.099 180.476 214.099 180.476 214.189 179.457C214.259 178.567 214.328 177.678 214.397 176.789C214.436 176.352 214.476 175.914 214.517 175.464C214.762 172.135 214.554 169.272 212.621 166.362C211.485 165.652 211.485 165.652 209.727 165.672C207.649 166.239 207.649 166.239 206.446 168.251C204.148 173.282 203.897 178.977 204.131 184.382C203.787 184.53 203.443 184.679 203.089 184.831C201.457 185.646 200.054 186.611 198.573 187.652C196.028 189.404 193.481 191.15 190.893 192.847C190.295 193.243 189.698 193.64 189.082 194.048C187.458 194.845 187.458 194.845 186.086 194.752C184.988 194.264 184.988 194.264 183.753 193.101C182.76 190.474 182.564 188.284 183.136 185.544C186.477 180.488 192.528 176.637 197.693 173.374C199.463 171.957 200.215 170.721 201.043 168.687C200.682 166.724 200.379 165.641 198.728 164.364C196.69 163.884 195.656 163.996 193.633 164.618C190.356 166.833 187.58 169.688 184.781 172.406C183.753 173.337 183.753 173.337 182.518 173.919C182.37 171.793 182.37 170.659 183.136 168.687C185.112 166.593 187.312 164.837 189.597 163.051C190.944 161.975 192.194 160.819 193.44 159.641C194.017 159.1 194.017 159.1 194.605 158.549C195.995 157.119 196.104 156.476 196.258 154.482C196.259 152.498 196.259 152.498 195.447 151.249C193.967 150.53 192.822 150.471 191.19 150.756C187.856 152.058 185.104 154.864 183.136 157.643C183.127 157.271 183.118 156.898 183.109 156.515C183.062 154.82 183.003 153.125 182.943 151.43C182.929 150.845 182.915 150.259 182.901 149.656C182.773 146.347 182.664 143.829 180.048 141.367C179.02 141.343 177.99 141.342 176.961 141.367ZM293.045 149.673C289.1 154.568 287.27 160.225 288.11 166.362C289.547 172.954 292.522 178.041 298.48 181.891C304.452 185.165 310.798 185.912 317.593 184.647C320.445 183.828 322.774 182.591 325.16 180.894C326.077 180.283 326.077 180.283 327.012 179.659C330.878 176.556 333.427 171.655 333.93 166.93C333.992 165.684 334.008 164.448 333.998 163.201C333.995 162.765 333.993 162.328 333.99 161.878C333.884 157.016 332.13 153.63 329.482 149.505C329.075 149.505 328.667 149.505 328.247 149.505C327.942 148.642 327.942 148.642 327.63 147.761C321.86 143.019 316.499 141.577 308.931 141.748C302.433 142.314 297.32 145.085 293.045 149.673ZM264.645 159.968C264.18 161.319 264.18 161.319 264.645 162.874C268.957 166.664 274.778 167.182 280.413 167.1C282.312 166.904 283.554 166.343 285.023 165.199C284.906 163.226 284.576 162.45 283.054 161.058C278.824 158.668 268.734 156.119 264.645 159.968ZM338.127 159.387C337.715 161.081 337.715 161.081 338.127 162.874C340.678 165.586 344.264 166.723 348.022 167.053C349.434 167.134 350.839 167.175 352.253 167.198C352.716 167.211 353.179 167.223 353.656 167.237C355.754 167.229 356.947 167.223 358.524 165.856C359.266 164.619 359.266 164.619 358.891 163.165C356.703 159.997 352.97 159.069 349.242 158.224C346.858 158.042 346.858 158.042 344.457 158.079C343.658 158.076 342.858 158.073 342.035 158.07C339.896 158.072 339.896 158.072 338.127 159.387ZM280.7 182.929C278.776 184.845 277.701 186.453 277.42 189.105C277.483 189.656 277.547 190.208 277.613 190.776C279.65 192.054 280.626 192.13 283.011 191.786C286.733 190.641 290.44 187.507 292.433 184.382C292.928 182.237 292.928 182.237 293.05 180.313C288.501 177.677 284.496 179.424 280.7 182.929ZM330.1 180.894C329.176 182.633 329.218 183.592 329.482 185.544C331.722 189.685 335.316 194.175 339.98 196.007C341.884 196.25 341.884 196.25 343.685 196.007C345.123 194.345 345.123 194.345 344.843 192.338C344.246 189.973 343.388 188.632 341.832 186.707C341.476 186.215 341.119 185.724 340.752 185.217C338.682 183.107 336.244 181.152 333.142 180.712C331.839 180.693 331.839 180.693 330.1 180.894ZM309.723 186.707C306.289 190.461 306.507 193.508 306.481 198.296C306.468 198.871 306.455 199.446 306.442 200.039C306.363 204.148 306.363 204.148 308.488 207.633C310.031 208.118 310.031 208.118 311.575 207.633C314.416 204.194 314.175 200.496 314.199 196.334C314.212 195.787 314.225 195.24 314.238 194.676C314.278 190.687 314.278 190.687 312.193 187.288C310.905 186.778 310.905 186.778 309.723 186.707ZM263.217 196.371C262.878 196.682 262.538 196.993 262.189 197.313C260.67 198.773 259.755 199.699 259.486 201.761C259.558 202.164 259.631 202.568 259.705 202.983C260.113 202.983 260.52 202.983 260.94 202.983C260.94 203.367 260.94 203.75 260.94 204.145C261.348 204.145 261.755 204.145 262.175 204.145C262.175 204.529 262.175 204.913 262.175 205.308C262.999 206.277 262.999 206.277 264.028 207.052C264.435 207.052 264.843 207.052 265.263 207.052C265.263 207.436 265.263 207.819 265.263 208.214C266.946 209.516 266.946 209.516 268.567 209.329C270.72 208.627 271.899 207.569 273.522 206.071C274.074 205.577 274.627 205.083 275.196 204.575C276.548 203.068 276.548 203.068 276.412 201.239C275.648 199.194 274.689 198.002 273.136 196.407C272.662 195.906 272.187 195.405 271.698 194.888C268.035 191.935 266.199 193.417 263.217 196.371ZM135.321 202.865C133.906 204.739 133.965 205.979 134.354 208.214C136.814 210.121 138.666 210.112 141.764 209.849C142.573 209.782 143.383 209.714 144.217 209.645C147.741 209.284 151.239 208.785 154.731 208.214C154.731 207.447 154.731 206.68 154.731 205.889C153.457 204.855 153.457 204.855 151.798 204.036C151.254 203.741 150.709 203.445 150.148 203.14C147.232 201.788 144.708 201.696 141.455 201.639C140.646 201.617 139.838 201.595 139.004 201.573C136.809 201.651 136.809 201.651 135.321 202.865ZM207.836 203.564C207.681 205.672 207.681 205.672 207.836 207.633C209.689 208.636 211.031 208.944 213.162 208.95C213.7 208.952 214.238 208.953 214.792 208.955C215.349 208.95 215.907 208.946 216.481 208.941C217.038 208.946 217.595 208.95 218.169 208.955C218.976 208.952 218.976 208.952 219.8 208.95C220.288 208.949 220.777 208.948 221.281 208.946C222.836 208.776 223.819 208.444 225.126 207.633C225.794 205.942 225.794 205.942 225.743 204.145C224.877 202.901 224.26 202.508 222.757 202.075C220.362 201.618 217.952 201.689 215.516 201.675C214.983 201.663 214.45 201.651 213.901 201.639C213.389 201.636 212.877 201.633 212.349 201.63C211.883 201.624 211.417 201.619 210.936 201.613C209.328 201.88 208.789 202.329 207.836 203.564ZM135.058 257.397C134.673 257.807 134.288 258.218 133.891 258.641C133.499 259.045 133.107 259.45 132.704 259.867C131.757 261.036 131.757 261.036 131.961 262.294C132.564 263.569 133.245 264.512 134.199 265.58C134.502 265.93 134.804 266.28 135.116 266.64C136.47 267.714 137.56 267.879 139.294 268.087C140.038 267.284 140.769 266.471 141.494 265.653C142.106 264.975 142.106 264.975 142.731 264.283C143.756 262.914 143.756 262.914 143.59 261.347C142.88 259.668 142.162 259.062 140.606 258.023C140.174 257.726 139.743 257.428 139.299 257.122C137.513 256.17 136.628 256.117 135.058 257.397Z" fill="#14495D"/>
</svg>
