<svg width="186" height="60" viewBox="0 0 186 60" fill="none" xmlns="http://www.w3.org/2000/svg">
<path d="M12.5263 52.4907C12.7948 52.4893 13.0633 52.4874 13.3318 52.485C13.7134 52.4817 14.0949 52.4806 14.4765 52.4801C14.5918 52.4788 14.7071 52.4774 14.8259 52.476C15.4658 52.478 15.9229 52.5038 16.3993 52.9523C16.4787 53.469 16.4835 53.8247 16.153 54.2548C15.5363 54.6713 14.9455 54.7304 14.2035 54.728C14.1139 54.7286 14.0243 54.7291 13.9319 54.7297C13.6375 54.7312 13.343 54.7311 13.0485 54.7309C12.843 54.7313 12.6375 54.7318 12.432 54.7323C12.0021 54.7331 11.5721 54.7331 11.1422 54.7325C10.5916 54.7319 10.0411 54.7337 9.49052 54.7362C9.06644 54.7378 8.64237 54.7379 8.21829 54.7376C8.01529 54.7377 7.81228 54.7382 7.60929 54.7393C7.32549 54.7407 7.04179 54.7399 6.758 54.7387C6.67447 54.7395 6.59094 54.7403 6.50489 54.7412C5.873 54.735 5.51128 54.5805 5.05523 54.1798C4.85167 53.7966 4.90331 53.5731 5.04074 53.1706C6.61137 51.8812 10.5771 52.4994 12.5263 52.4907Z" fill="white"/>
<path d="M5.38836 49.3518C5.73387 49.3146 5.73387 49.3146 6.17162 49.3198C6.24847 49.3203 6.32532 49.3208 6.4045 49.3212C6.65018 49.3231 6.89576 49.3272 7.14141 49.3313C7.30787 49.333 7.47433 49.3345 7.64079 49.3358C8.04906 49.3394 8.45726 49.3451 8.86548 49.3518C8.99135 50.084 8.99135 50.084 8.9017 50.3679C8.71362 50.5955 8.56997 50.6621 8.28596 50.7702C7.82122 50.8189 7.35521 50.8106 6.88787 50.8111C6.7602 50.8138 6.63253 50.8164 6.501 50.8192C6.37871 50.8196 6.25642 50.82 6.13042 50.8205C6.01865 50.8214 5.90689 50.8223 5.79173 50.8232C5.50427 50.7702 5.50427 50.7702 5.29354 50.5697C5.11013 50.2538 5.11644 50.034 5.15655 49.6791C5.23305 49.5711 5.30955 49.4631 5.38836 49.3518Z" fill="white"/>
<path d="M50.9387 46.7333C48.3453 48.5414 45.5574 50.122 42.7023 51.534C42.5866 51.5917 42.4709 51.6493 42.3517 51.7086C41.6352 52.0575 40.911 52.3498 40.1544 52.6133C39.8257 52.7293 39.5039 52.8554 39.1817 52.9865C38.9286 53.0853 38.675 53.1829 38.4211 53.2798C38.3423 53.31 38.2636 53.3402 38.1825 53.3713C35.4594 54.4002 32.5371 55.1383 29.6341 55.5437C29.4406 55.5714 29.4406 55.5714 29.2433 55.5997C28.0432 55.7465 27.2374 55.5652 26.2366 54.9368C26.1597 54.8903 26.0828 54.8439 26.0035 54.796C25.4954 54.4866 25.0027 54.1591 24.5126 53.8253C24.5508 53.6813 24.5891 53.5373 24.6285 53.3889C25.455 53.3746 26.2679 53.407 27.0914 53.4741C28.2544 53.538 29.3699 53.4585 30.5251 53.3207C30.6703 53.3053 30.8155 53.29 30.9652 53.2742C33.097 53.0218 35.1202 52.3366 37.1316 51.65C37.3415 51.5789 37.5514 51.5077 37.7613 51.4366C40.7537 50.4189 43.7454 49.3767 46.6502 48.1517C46.8327 48.075 47.0152 47.9983 47.1976 47.9216C47.3323 47.8649 47.3323 47.8649 47.4697 47.8071C48.2126 47.4949 48.9559 47.184 49.7072 46.8902C49.8444 46.836 49.9815 46.7819 50.1228 46.7261C50.4682 46.6262 50.6105 46.6062 50.9387 46.7333Z" fill="white"/>
<path d="M3.35285 45.7105C3.80534 46.1053 3.9719 46.4311 4.04827 47.0062C3.97283 47.5744 3.65341 48.0067 3.18624 48.37C2.75438 48.5055 2.35987 48.5375 1.91129 48.4791C1.46585 48.2576 1.10562 48.0298 0.868158 47.6063C0.702172 46.9813 0.728702 46.6059 1.07461 46.046C1.61228 45.3403 2.58195 45.3675 3.35285 45.7105Z" fill="white"/>
<path d="M72.5113 44.217C72.7287 44.442 72.7287 44.442 72.7626 44.6947C72.6378 45.7706 71.3832 46.8161 70.6424 47.6061C70.5523 47.7032 70.4622 47.8002 70.3694 47.9002C69.4908 48.8342 68.5836 49.7058 67.5342 50.4702C67.2597 50.6695 67.2597 50.6695 66.9624 50.968C66.2793 51.5932 65.5041 51.6075 64.6009 51.684C63.5492 51.7855 62.6495 51.9104 61.7178 52.4068C61.8385 52.3753 61.9592 52.3438 62.0836 52.3114C63.2601 52.0194 64.3285 51.915 65.5426 51.9704C65.4438 52.4316 65.2087 52.6447 64.8472 52.9524C64.7741 53.0178 64.7011 53.0832 64.6258 53.1505C64.0471 53.6558 63.4375 54.0726 62.7749 54.4752C62.4262 54.6901 62.0912 54.9176 61.754 55.1481C59.8272 56.4084 57.5168 57.7333 55.2271 58.2986C54.9677 58.2509 54.9677 58.2509 54.7635 58.1895C55.6071 57.2167 56.6279 56.4685 57.6611 55.68C57.2266 55.8656 56.8456 56.1159 56.4586 56.3756C56.3878 56.4229 56.3169 56.4702 56.2439 56.5189C55.6481 56.9238 55.0935 57.3658 54.5589 57.8404C53.6121 58.6463 52.3951 58.9506 51.185 59.2465C51.0596 59.2786 50.9343 59.3108 50.8051 59.3439C49.5027 59.669 48.2317 59.8719 46.8821 59.8261C46.8821 59.7541 46.8821 59.6821 46.8821 59.6079C47.0867 59.4702 47.0867 59.4702 47.3746 59.3147C47.4802 59.2569 47.5858 59.1992 47.6946 59.1397C47.8089 59.0782 47.9233 59.0167 48.0411 58.9533C48.2762 58.8249 48.5112 58.6963 48.746 58.5675C48.8627 58.5037 48.9793 58.4398 49.0995 58.374C49.5517 58.1231 49.9959 57.8613 50.4389 57.5962C50.9161 57.311 51.3912 57.041 51.8949 56.7984C53.3702 56.0608 54.7655 55.0589 56.0385 54.0434C54.571 54.6406 53.2075 55.3628 51.8498 56.1531C51.7103 56.2342 51.5708 56.3154 51.4313 56.3965C51.362 56.4368 51.2927 56.4771 51.2213 56.5186C50.7383 56.7983 50.2504 57.0687 49.7579 57.3333C49.6905 57.3695 49.623 57.4058 49.5536 57.4431C49.2351 57.614 48.9159 57.7837 48.5961 57.9524C47.6652 58.4496 46.781 59.0011 45.9693 59.6603C45.3699 59.9347 44.7563 59.8756 44.1004 59.8602C43.9656 59.8592 43.8308 59.8581 43.692 59.857C43.08 59.8494 42.5011 59.822 41.8982 59.717C42.2141 59.3732 42.6157 59.1709 43.0282 58.9464C43.7282 58.5588 44.409 58.1512 45.0809 57.7219C46.1639 57.0312 47.2747 56.393 48.4105 55.7823C48.6781 55.6378 48.9457 55.4931 49.2133 55.3485C49.2804 55.3122 49.3476 55.2759 49.4168 55.2385C50.0759 54.8821 50.7319 54.5209 51.3878 54.1594C52.3995 53.6029 53.4135 53.0503 54.4303 52.5023C54.4982 52.4657 54.5662 52.4291 54.6362 52.3913C55.6849 51.8268 56.7408 51.2757 57.8061 50.7393C57.9029 50.6903 57.9997 50.6413 58.0994 50.5908C58.1831 50.5488 58.2669 50.5067 58.3532 50.4634C58.6013 50.3267 58.8253 50.1727 59.052 50.0065C56.866 50.7903 54.8141 51.6534 52.8473 52.848C52.0297 53.3362 51.1687 53.7425 50.3073 54.1572C49.5202 54.5374 48.7476 54.9338 47.9831 55.3527C47.0961 55.8388 46.1949 56.2903 45.2811 56.7302C44.2223 57.241 43.2094 57.7894 42.2112 58.3979C41.693 58.7106 41.1638 59.0035 40.6232 59.2806C40.5445 59.3212 40.4658 59.3619 40.3846 59.4037C38.9241 60.0412 36.5806 59.2578 35.1445 58.8037C34.16 58.4593 34.16 58.4593 34.0167 58.1895C34.4781 58.0776 34.9373 57.9697 35.4053 57.8852C38.5613 57.3049 42.1002 55.8637 44.6799 54.0434C44.6799 53.9714 44.6799 53.8994 44.6799 53.8252C44.0946 53.8846 43.6362 54.0744 43.1224 54.3298C42.9559 54.4101 42.7893 54.4902 42.6226 54.5702C42.5394 54.6104 42.4561 54.6505 42.3704 54.6919C34.648 58.3951 34.648 58.3951 32.1989 57.7497C32.0532 57.6979 31.9082 57.6444 31.7638 57.5894C31.686 57.5609 31.6081 57.5324 31.5279 57.5031C30.5991 57.1556 29.699 56.7469 28.801 56.3347C28.801 56.2267 28.801 56.1187 28.801 56.0074C28.9482 56.0107 29.0954 56.0141 29.247 56.0176C29.8619 56.0167 30.4486 55.941 31.0539 55.8437C31.1715 55.8248 31.289 55.8059 31.4101 55.7865C34.0033 55.3519 36.5796 54.8191 39.0006 53.8252C39.1238 53.7757 39.247 53.7261 39.3739 53.675C41.5851 52.7839 43.6677 51.8146 45.6909 50.5925C51.4201 47.1345 57.2958 44.2038 64.1119 43.2792C64.3577 43.2454 64.6023 43.2076 64.8472 43.1681C67.3793 42.7905 70.2711 42.9095 72.5113 44.217ZM61.3338 46.5423C61.2405 46.5639 61.1472 46.5855 61.051 46.6077C59.5864 46.9474 58.143 47.3126 56.7339 47.8243C56.5732 47.8827 56.5732 47.8827 56.4093 47.9422C54.1787 48.764 52.0126 49.7371 49.9463 50.8789C49.3706 51.1948 48.7864 51.4958 48.2021 51.7972C47.9542 51.9259 47.7078 52.057 47.4616 52.1886C47.3729 52.2344 47.2843 52.2802 47.193 52.3274C47.108 52.3734 47.023 52.4195 46.9355 52.4669C46.8584 52.5078 46.7814 52.5486 46.702 52.5907C46.6467 52.638 46.5914 52.6854 46.5343 52.7342C46.5343 52.8782 46.5343 53.0222 46.5343 53.1706C47.0596 53.1133 47.4066 52.9915 47.8527 52.7273C48.3735 52.4308 48.8996 52.1599 49.4464 51.909C50.2972 51.5172 51.1282 51.0941 51.9601 50.6679C57.2682 47.9669 62.9108 46.6251 68.9038 46.0786C68.9038 46.0066 68.9038 45.9346 68.9038 45.8604C68.2325 45.7532 67.5776 45.7277 66.8972 45.724C66.7968 45.7218 66.6963 45.7195 66.5928 45.7172C64.8137 45.7076 63.0506 46.1431 61.3338 46.5423Z" fill="white"/>
<path d="M2.37488 35.6045C2.45137 35.6045 2.52787 35.6045 2.60669 35.6045C2.66854 35.7115 2.7304 35.8186 2.79412 35.9288C4.11104 38.1849 5.69163 40.1866 7.59056 42.0418C7.66786 42.1175 7.74516 42.1933 7.8248 42.2713C8.88048 43.3 9.92768 44.2844 11.1836 45.0968C11.2525 45.1423 11.3214 45.1879 11.3925 45.2348C17.4439 49.2026 24.4632 50.4212 31.705 49.297C35.4645 48.6369 39.0179 47.2393 42.4777 45.7515C42.6135 45.6932 42.7493 45.635 42.8892 45.575C45.7366 44.3505 48.5562 43.0593 51.3154 41.6668C53.4284 40.6056 55.6274 39.7171 57.8929 38.9868C58.0326 38.9417 58.1724 38.8965 58.3163 38.85C59.3791 38.5167 60.439 38.2947 61.5441 38.1264C61.8064 38.0864 62.0684 38.0445 62.3303 38.0023C67.4751 37.186 72.5863 37.862 76.8953 40.743C77.6748 41.278 78.4043 41.8517 79.1033 42.4782C79.2053 42.562 79.2053 42.562 79.3093 42.6474C81.4298 44.4651 82.6969 47.4016 82.8422 50.0463C82.8798 51.0878 82.7749 51.9771 82.3487 52.9525C82.308 53.0486 82.2674 53.1446 82.2255 53.2436C81.4348 54.9106 79.8016 55.983 78.0602 56.6622C77.6345 56.7818 77.2276 56.8463 76.7853 56.8804C76.6872 56.8892 76.5892 56.8981 76.4883 56.9072C74.723 56.9888 73.2018 56.3778 71.8883 55.312C70.9246 54.4617 70.2412 53.556 70.1642 52.2749C70.1271 50.8553 70.619 49.4981 71.6737 48.4527C72.4325 47.8553 73.2784 47.4957 74.2752 47.5577C75.3952 47.7344 76.2739 48.2694 76.9532 49.1278C77.29 49.6774 77.3998 50.2583 77.2489 50.8795C76.8871 51.5195 76.3642 52.0593 75.6262 52.2979C74.861 52.4856 74.1637 52.6255 73.424 52.2979C72.7582 51.8621 72.3476 51.4087 72.1491 50.6613C72.0726 50.6253 71.9961 50.5893 71.9173 50.5522C71.9078 50.8636 71.901 51.1749 71.8956 51.4864C71.8926 51.5737 71.8897 51.6609 71.8867 51.7509C71.8742 52.7153 72.251 53.4551 72.9604 54.1527C73.84 54.8297 74.9612 55.1656 76.0966 55.1206C77.2741 54.9499 78.2529 54.4449 78.9784 53.5509C79.8607 52.3222 79.9722 51.1016 79.6901 49.652C79.3705 48.4673 78.649 47.3157 77.7374 46.4479C77.5966 46.297 77.5966 46.297 77.5966 46.0788C77.489 46.0383 77.489 46.0383 77.3793 45.9969C77.0862 45.8347 77.0497 45.7038 76.9012 45.4241C76.7482 45.3485 76.5934 45.2761 76.4376 45.2059C76.3078 45.1216 76.1803 45.0343 76.055 44.9442C73.8136 43.3719 71.3636 42.1358 68.5561 41.8236C68.4473 41.8115 68.3385 41.7994 68.2265 41.7869C67.2554 41.696 66.2853 41.6964 65.3108 41.7145C65.2335 41.7153 65.1562 41.7161 65.0766 41.7169C63.9024 41.7327 62.7651 41.878 61.6091 42.0691C61.4809 42.0901 61.3528 42.1111 61.2207 42.1327C59.2943 42.4671 57.4695 42.9862 55.6457 43.6537C55.336 43.767 55.0257 43.8785 54.7153 43.9898C53.4766 44.4365 52.261 44.9202 51.0529 45.4356C44.7262 48.1198 37.9005 50.9936 31.0032 51.9706C30.8365 51.995 30.8365 51.995 30.6664 52.02C24.5581 52.8997 18.2322 51.7763 12.9221 48.8065C12.8466 48.7652 12.7711 48.7239 12.6932 48.6813C11.0399 47.7753 9.59964 46.6415 8.19317 45.4254C7.93117 45.1998 7.66338 44.9815 7.39497 44.7627C6.91297 44.358 6.49245 43.9304 6.08381 43.4602C5.98714 43.3515 5.89047 43.2428 5.79088 43.1308C3.92261 40.9923 2.51846 38.4159 2.37488 35.6045Z" fill="white"/>
<path d="M3.64986 24.9119C3.82977 25.2947 3.91961 25.6259 3.95999 26.0421C3.9719 26.1539 3.9838 26.2657 3.99607 26.3808C4.00852 26.4992 4.02096 26.6175 4.03379 26.7394C4.15892 27.8009 4.34717 28.7818 4.71778 29.7901C4.82237 30.0768 4.92098 30.3651 5.01988 30.6536C5.72517 32.6762 6.64095 34.2738 8.05421 35.9317C8.10912 35.9962 8.16402 36.0606 8.22059 36.127C9.31151 37.3963 10.506 38.5295 11.879 39.5322C11.9479 39.583 12.0168 39.6338 12.0878 39.6861C16.15 42.6705 20.8456 43.943 25.9831 43.9511C26.0787 43.9515 26.1742 43.952 26.2726 43.9525C28.4553 43.9571 30.5131 43.5877 32.6186 43.0714C32.7156 43.0478 32.8126 43.0243 32.9125 43C36.272 42.1803 39.3858 40.9535 42.4844 39.4947C42.8093 39.342 43.135 39.1908 43.4606 39.0395C44.746 38.4381 45.9856 37.7898 47.2078 37.0811C47.6977 36.7982 48.2005 36.5516 48.7189 36.3182C49.1002 36.1426 49.4731 35.9553 49.8471 35.7663C50.8138 35.2784 51.7915 34.8323 52.7956 34.4166C53.2956 34.2094 53.7823 33.9935 54.2637 33.7495C59.7455 31.1295 66.5139 30.2939 72.4086 32.0695C72.9502 32.2444 73.4786 32.4436 74.0036 32.6585C74.0791 32.6892 74.1546 32.7199 74.2324 32.7515C76.374 33.6451 78.4206 34.8808 80.1465 36.3681C80.2751 36.4659 80.404 36.5633 80.5332 36.6605C80.686 36.7858 80.686 36.7858 80.8419 36.9136C80.8419 36.9857 80.8419 37.0577 80.8419 37.1319C80.9949 37.2039 81.1479 37.2759 81.3056 37.3501C81.3056 37.4221 81.3056 37.4941 81.3056 37.5683C81.4585 37.6403 81.6115 37.7123 81.7692 37.7865C81.7692 37.8585 81.7692 37.9305 81.7692 38.0047C81.8457 38.0047 81.9222 38.0047 82.001 38.0047C82.1615 38.1873 82.1615 38.1873 82.346 38.4446C82.4137 38.539 82.4815 38.6334 82.5513 38.7307C82.659 38.8844 82.659 38.8844 82.7688 39.0412C82.842 39.1455 82.9152 39.2498 82.9907 39.3573C84.2239 41.141 85.1143 42.9583 85.3622 45.0967C85.3723 45.1777 85.3823 45.2587 85.3927 45.3422C85.4698 45.9987 85.4964 46.6458 85.4926 47.3061C85.4922 47.4055 85.4918 47.5049 85.4914 47.6073C85.4825 48.7142 85.4707 49.8114 85.1304 50.8794C85.0539 50.8794 84.9774 50.8794 84.8986 50.8794C84.8764 50.8057 84.8543 50.7321 84.8315 50.6563C84.7289 50.3168 84.6254 49.9775 84.5219 49.6383C84.4871 49.5225 84.4523 49.4068 84.4164 49.2875C84.1055 48.2724 83.7472 47.3233 83.1745 46.4128C82.8881 45.9532 82.6077 45.492 82.3414 45.0217C80.1112 41.1764 76.349 38.2555 71.9173 36.9136C69.8383 36.3562 67.7567 36.106 65.6006 36.1158C65.4641 36.1161 65.4641 36.1161 65.3249 36.1164C63.7926 36.122 62.2985 36.2038 60.7905 36.4772C60.6927 36.4948 60.5949 36.5123 60.4942 36.5304C56.4492 37.2876 52.6973 38.9126 49.0842 40.7324C48.9117 40.8181 48.739 40.9036 48.5663 40.989C47.3078 41.6123 46.062 42.2606 44.8465 42.9555C40.0965 45.5708 34.787 47.2074 29.3805 48.0426C29.2891 48.0571 29.1976 48.0715 29.1033 48.0865C26.1971 48.5352 23.1892 48.2348 20.34 47.6061C20.2063 47.5768 20.2063 47.5768 20.0698 47.547C16.1507 46.665 12.7924 44.5006 9.79277 42.0417C9.64598 41.9237 9.64598 41.9237 9.49622 41.8034C8.92333 41.3369 8.42162 40.8443 7.9383 40.296C7.8249 40.1728 7.8249 40.1728 7.70921 40.0471C4.72227 36.7343 2.82096 32.9328 2.80955 28.5601C2.80932 28.4883 2.80909 28.4165 2.80885 28.3425C2.80795 27.2106 2.86862 26.1163 3.18624 25.021C3.30214 24.9119 3.30214 24.9119 3.64986 24.9119Z" fill="white"/>
<path d="M4.92622 18.4302C5.10613 18.813 5.19597 19.1442 5.23636 19.5605C5.24826 19.6722 5.26017 19.784 5.27244 19.8991C5.28488 20.0175 5.29733 20.1358 5.31015 20.2577C5.43529 21.3192 5.62354 22.3001 5.99415 23.3085C6.09874 23.5952 6.19735 23.8835 6.29624 24.1719C7.00154 26.1945 7.91732 27.7921 9.33058 29.45C9.38548 29.5145 9.44039 29.5789 9.49696 29.6454C10.5879 30.9146 11.7824 32.0478 13.1554 33.0505C13.2243 33.1013 13.2932 33.1521 13.3642 33.2044C17.4264 36.1888 22.122 37.4613 27.2595 37.4694C27.355 37.4699 27.4506 37.4703 27.549 37.4708C29.7316 37.4754 31.7894 37.1061 33.895 36.5897C33.992 36.5661 34.089 36.5426 34.1889 36.5183C37.5484 35.6986 40.6621 34.4718 43.7608 33.013C44.0857 32.8603 44.4113 32.7091 44.737 32.5578C46.0224 31.9564 47.262 31.3081 48.4842 30.5994C48.9741 30.3165 49.4768 30.07 49.9952 29.8366C50.3765 29.6609 50.7495 29.4736 51.1234 29.2846C52.0902 28.7967 53.0679 28.3506 54.0719 27.9349C54.5719 27.7277 55.0587 27.5118 55.5401 27.2678C61.0218 24.6478 67.7902 23.8122 73.6849 25.5878C74.2265 25.7627 74.755 25.9619 75.28 26.1768C75.3555 26.2075 75.4309 26.2382 75.5087 26.2699C77.6504 27.1634 79.697 28.3992 81.4229 29.8864C81.5515 29.9842 81.6804 30.0816 81.8095 30.1788C81.9624 30.3041 81.9624 30.3041 82.1183 30.432C82.1183 30.504 82.1183 30.576 82.1183 30.6502C82.2713 30.7222 82.4243 30.7942 82.5819 30.8684C82.5819 30.9404 82.5819 31.0124 82.5819 31.0866C82.7349 31.1586 82.8879 31.2306 83.0455 31.3048C83.0455 31.3768 83.0455 31.4488 83.0455 31.523C83.122 31.523 83.1985 31.523 83.2773 31.523C83.4379 31.7057 83.4379 31.7057 83.6223 31.9629C83.6901 32.0573 83.7579 32.1517 83.8277 32.249C83.9354 32.4027 83.9354 32.4027 84.0452 32.5595C84.1184 32.6639 84.1916 32.7682 84.267 32.8756C85.5002 34.6593 86.3906 36.4766 86.6386 38.615C86.6486 38.696 86.6587 38.777 86.6691 38.8605C86.7462 39.5171 86.7728 40.1641 86.769 40.8244C86.7686 40.9238 86.7682 41.0232 86.7678 41.1256C86.7588 42.2325 86.7471 43.3297 86.4068 44.3977C86.3303 44.3977 86.2538 44.3977 86.1749 44.3977C86.1528 44.3241 86.1306 44.2504 86.1078 44.1746C86.0053 43.8351 85.9018 43.4958 85.7983 43.1566C85.7634 43.0408 85.7286 42.9251 85.6928 42.8058C85.3818 41.7907 85.0236 40.8416 84.4509 39.9311C84.1645 39.4715 83.884 39.0103 83.6178 38.54C81.3876 34.6947 77.6254 31.7738 73.1937 30.432C71.1147 29.8745 69.033 29.6243 66.8769 29.6341C66.7405 29.6344 66.7405 29.6344 66.6013 29.6347C65.069 29.6403 63.5749 29.7222 62.0669 29.9955C61.9691 30.0131 61.8713 30.0307 61.7705 30.0487C57.7256 30.8059 53.9737 32.431 50.3606 34.2507C50.188 34.3364 50.0154 34.4219 49.8427 34.5073C48.5842 35.1306 47.3384 35.7789 46.1229 36.4738C41.3729 39.0891 36.0634 40.7257 30.6569 41.5609C30.5654 41.5754 30.4739 41.5899 30.3797 41.6048C27.4734 42.0535 24.4656 41.7531 21.6164 41.1245C21.4826 41.0952 21.4826 41.0952 21.3462 41.0653C17.4271 40.1833 14.0688 38.0189 11.0691 35.56C10.9223 35.4421 10.9223 35.4421 10.7726 35.3217C10.1997 34.8552 9.69798 34.3626 9.21467 33.8143C9.10127 33.6911 9.10127 33.6911 8.98558 33.5654C5.99864 30.2526 4.09733 26.4511 4.08592 22.0784C4.08569 22.0066 4.08545 21.9348 4.08521 21.8608C4.08432 20.7289 4.14499 19.6346 4.46261 18.5393C4.57851 18.4302 4.57851 18.4302 4.92622 18.4302Z" fill="white"/>
<path d="M84.2031 20.4385C84.7113 20.6777 85.0296 20.922 85.2463 21.4205C85.3298 22.1168 85.2282 22.4942 84.7826 23.0571C84.281 23.3824 83.8785 23.4541 83.2759 23.3844C82.8582 23.2336 82.5388 23.0269 82.24 22.7093C82.064 22.2708 82.0388 21.8832 82.1168 21.4205C82.5737 20.5604 83.2178 20.2913 84.2031 20.4385Z" fill="white"/>
<path d="M79.6322 20.4114C80.1368 20.8498 80.1368 20.8498 80.2624 21.0933C80.2624 21.5665 80.2307 21.7777 79.8712 22.1162C79.3602 22.4139 78.8822 22.4747 78.292 22.4026C77.8468 22.2586 77.4817 22.0658 77.133 21.7684C76.9606 21.4133 76.966 21.1509 77.0171 20.766C77.6183 20.0244 78.7951 20.0243 79.6322 20.4114Z" fill="white"/>
<path d="M77.4445 16.2515C77.8356 16.2541 78.0407 16.3169 78.3427 16.5515C78.663 16.8603 78.7424 16.9438 78.7919 17.363C78.7473 17.7905 78.6058 17.9522 78.292 18.2563C77.8879 18.4465 77.458 18.4277 77.0171 18.3654C76.6621 18.1404 76.6621 18.1404 76.4375 17.8199C76.3527 17.3316 76.3996 17.1184 76.6621 16.6879C76.9901 16.295 76.9901 16.295 77.4445 16.2515Z" fill="white"/>
<path d="M82.1169 15.8559C82.4579 15.9978 82.561 16.1175 82.8123 16.4014C82.9341 16.7017 82.9694 16.9551 82.9282 17.2743C82.7001 17.6884 82.5291 17.8885 82.1169 18.1472C81.7557 18.2203 81.4348 18.2223 81.0738 18.1472C80.7523 17.9393 80.557 17.7084 80.3783 17.3834C80.2866 16.8913 80.3378 16.6884 80.5957 16.2514C81.0171 15.7614 81.4798 15.7694 82.1169 15.8559Z" fill="white"/>
<path d="M44.3611 0.00141429C44.5013 0.00075336 44.5013 0.00075336 44.6443 7.90823e-05C46.5817 -0.00419191 48.4338 0.164081 50.3157 0.615142C50.4611 0.649257 50.6066 0.683372 50.7564 0.718522C53.266 1.31478 55.685 2.12436 58.0088 3.19962C58.1375 3.25742 58.2661 3.31523 58.3986 3.37478C60.256 4.22381 62.0177 5.22218 63.6881 6.36372C63.7547 6.40911 63.8213 6.45451 63.8899 6.50128C65.324 7.48786 66.5783 8.64001 67.8389 9.81423C67.9326 9.90094 68.0262 9.98765 68.1227 10.077C68.2523 10.1988 68.2523 10.1988 68.3845 10.3231C68.4623 10.3959 68.5401 10.4687 68.6203 10.5437C68.7879 10.728 68.7879 10.728 68.7879 10.9462C68.8644 10.9462 68.9409 10.9462 69.0197 10.9462C69.9875 11.9234 70.7972 13.0539 71.5696 14.1717C71.6158 14.2381 71.6619 14.3044 71.7095 14.3728C72.0332 14.8479 72.0332 14.8479 72.0332 15.0923C72.1097 15.0923 72.1862 15.0923 72.265 15.0923C72.4605 15.3687 72.6402 15.6436 72.8156 15.9311C72.8937 16.0583 72.8937 16.0583 72.9735 16.188C74.2496 18.2915 74.927 20.4942 75.5103 22.8389C75.5321 22.9243 75.5538 23.0097 75.5762 23.0977C75.9 24.3725 75.9 24.3725 75.7421 24.8028C75.2972 24.6755 74.8737 24.5179 74.4477 24.3438C73.0052 23.7542 71.5991 23.2654 70.0628 22.948C69.9146 22.9159 69.7664 22.8839 69.6137 22.8508C63.7044 21.6487 57.6978 22.9027 52.3295 25.3484C52.2468 25.3859 52.1642 25.4235 52.079 25.4622C51.6131 25.675 51.1506 25.8933 50.6903 26.1167C50.4832 26.2173 50.2754 26.3167 50.0676 26.416C48.3797 27.2402 46.749 28.1807 45.1725 29.1807C45.1043 29.2239 45.0362 29.267 44.9661 29.3115C44.8976 29.3548 44.8292 29.3982 44.7586 29.4429C44.6165 29.5328 44.4743 29.6228 44.3321 29.7126C44.2554 29.7612 44.1786 29.8097 44.0995 29.8597C38.066 33.6431 30.7861 36.2166 23.4926 34.8817C20.4421 34.2967 15.7666 33.3403 13.7575 30.8762C13.1064 29.9299 13.0021 28.9935 13.0032 27.8855C13.0027 27.7753 13.0022 27.6651 13.0017 27.5516C13.001 27.3191 13.001 27.0867 13.0015 26.8543C13.0018 26.5052 12.9991 26.1562 12.9962 25.8072C12.9917 24.4547 13.0887 23.1802 13.3858 21.8569C13.4124 21.7347 13.439 21.6125 13.4664 21.4865C13.5406 21.1608 13.6206 20.8372 13.7045 20.5135C13.7342 20.3989 13.7639 20.2843 13.7944 20.1662C14.2698 18.3771 14.8856 16.7139 15.8198 15.0923C15.9092 14.9298 15.9092 14.9298 16.0004 14.7641C17.0369 12.9079 18.4321 11.1997 19.9642 9.68254C20.2245 9.42908 20.2245 9.42908 20.4188 9.16513C20.4945 9.07463 20.4945 9.07463 20.5718 8.98229C20.6483 8.98229 20.7248 8.98229 20.8036 8.98229C20.8036 8.91028 20.8036 8.83827 20.8036 8.76408C20.9616 8.61406 20.9616 8.61406 21.1876 8.43676C21.5724 8.13011 21.9429 7.81387 22.3104 7.48889C23.1127 6.79982 23.982 6.19984 24.8603 5.59997C24.9669 5.5267 25.0736 5.45342 25.1835 5.37792C26.992 4.16075 28.9021 3.26154 30.9525 2.46996C31.1436 2.39606 31.1436 2.39606 31.3385 2.32066C35.5425 0.723922 39.8402 0.0173393 44.3611 0.00141429ZM53.4016 4.80895C53.0277 5.44255 53.0282 6.26333 53.2106 6.95571C53.3374 7.28546 53.4552 7.53248 53.7204 7.78211C54.0561 7.82263 54.2279 7.83294 54.5027 7.63891C54.8236 7.23108 54.7827 6.81162 54.7852 6.32281C54.7877 6.10888 54.7877 6.10888 54.7902 5.89064C54.7596 5.4325 54.6647 5.11819 54.3796 4.74757C54.1832 4.59792 54.1832 4.59792 53.8942 4.57027C53.592 4.59313 53.592 4.59313 53.4016 4.80895ZM58.1727 7.21314C57.6933 7.82743 57.636 8.24872 57.6611 8.98229C57.7983 9.13322 57.7983 9.13322 58.1827 9.14595C58.8602 9.13792 59.2866 8.7614 59.7474 8.32765C60.1847 7.84531 60.2579 7.38617 60.2273 6.76989C60.2219 6.70786 60.2165 6.64584 60.211 6.58194C59.4363 6.21728 58.693 6.6618 58.1727 7.21314ZM40.7681 7.58436C40.7079 7.63703 40.6477 7.6897 40.5856 7.74397C40.3892 7.91926 40.3892 7.91926 40.1596 8.21854C40.1731 8.63833 40.3214 8.8937 40.6232 9.20051C40.6997 9.20051 40.7762 9.20051 40.855 9.20051C40.8861 9.26802 40.9172 9.33553 40.9492 9.40508C41.0817 9.66961 41.0817 9.66961 41.4345 9.85515C41.9948 9.84185 42.3053 9.54312 42.6878 9.19369C42.746 9.14214 42.8041 9.09059 42.8641 9.03748C43.0067 8.91093 43.148 8.78307 43.289 8.65497C43.1349 8.22435 42.9476 7.96681 42.6008 7.65255C42.5209 7.57899 42.441 7.50543 42.3586 7.42965C41.6606 6.84021 41.37 7.0199 40.7681 7.58436ZM48.0411 7.01836C47.9196 7.3279 47.8711 7.46255 47.9252 7.78211C48.3639 8.39233 48.9513 8.98885 49.6637 9.30961C50.0937 9.35525 50.0937 9.35525 50.4751 9.30961C50.6248 9.19126 50.6248 9.19126 50.6272 8.90728C50.5544 8.18075 50.0087 7.73864 49.4428 7.28943C48.9885 6.98623 48.587 6.84706 48.0411 7.01836ZM28.9169 8.32765C28.5541 8.89357 28.5086 9.36277 28.4895 10.0052C28.4856 10.0959 28.4816 10.1866 28.4775 10.2801C28.468 10.5021 28.4605 10.7241 28.4533 10.9462C28.3807 10.8845 28.3081 10.8227 28.2333 10.7591C28.1385 10.6791 28.0438 10.5991 27.9462 10.5166C27.8521 10.4369 27.758 10.3571 27.661 10.275C27.3592 10.0324 27.2422 9.96948 26.8451 9.93698C26.4394 9.96753 26.2855 10.0025 26.0193 10.2916C25.9613 10.6505 25.989 10.8766 26.1352 11.2122C26.5347 11.694 27.0525 12.0648 27.5487 12.4562C28.1999 13.0093 28.4177 13.5205 28.5692 14.3285C28.4363 14.2195 28.3035 14.1104 28.1708 14.0012C28.0862 13.9322 28.0017 13.8631 27.9145 13.792C27.7323 13.6401 27.553 13.4852 27.3767 13.3274C26.6823 12.7088 26.6823 12.7088 25.7875 12.4737C25.4355 12.5525 25.4355 12.5525 25.208 12.801C25.0917 13.1592 25.0917 13.1592 25.208 13.5648C25.6985 14.2138 26.3552 14.7535 26.9755 15.29C27.1379 15.4316 27.3003 15.5733 27.4627 15.715C27.5334 15.7763 27.6041 15.8376 27.6769 15.9007C27.7419 15.958 27.8069 16.0152 27.8738 16.0743C27.9387 16.1288 28.0036 16.1833 28.0704 16.2395C28.3182 16.5054 28.2674 16.7741 28.265 17.1176C28.2663 17.3068 28.2663 17.3068 28.2677 17.4999C28.2524 17.6055 28.2372 17.7111 28.2215 17.82C27.8738 18.0382 27.8738 18.0382 27.6537 18.0129C27.1617 17.8436 26.7108 17.5977 26.2511 17.3631C26.1465 17.3118 26.042 17.2605 25.9342 17.2077C25.3397 16.9043 24.9189 16.6716 24.6285 16.0743C24.487 15.6217 24.3782 15.1648 24.2735 14.7036C24.2175 14.46 24.1607 14.2167 24.1028 13.9735C24.0785 13.8663 24.0541 13.759 24.029 13.6485C23.925 13.3213 23.8001 13.0762 23.5853 12.801C23.2376 12.7283 23.2376 12.7283 22.8899 12.801C22.6859 12.9285 22.6859 12.9285 22.5422 13.1284C22.4944 13.3812 22.4944 13.3812 22.5082 13.6615C22.5094 13.7639 22.5105 13.8662 22.5116 13.9716C22.5145 14.0781 22.5175 14.1847 22.5205 14.2944C22.522 14.4022 22.5236 14.5101 22.5252 14.6211C22.5293 14.8873 22.535 15.1534 22.5422 15.4196C22.0132 14.9901 21.8794 14.5125 21.6661 13.9023C21.4784 13.5231 21.283 13.3614 20.9195 13.1284C20.6832 13.2008 20.6832 13.2008 20.4559 13.3466C20.3749 13.585 20.3749 13.585 20.369 13.8512C20.3624 13.9404 20.3558 14.0295 20.3491 14.1214C20.3461 14.1898 20.3431 14.2581 20.34 14.3285C20.2825 14.2958 20.225 14.263 20.1657 14.2292C19.736 14.0028 19.4734 13.8921 18.9709 13.8921C18.6025 13.9763 18.6025 13.9763 18.3696 14.1853C18.2042 14.5456 18.2332 14.722 18.3696 15.0923C18.9321 15.6021 19.5825 15.9275 20.2676 16.272C20.375 16.3268 20.4824 16.3816 20.5931 16.438C20.8561 16.572 21.1194 16.7053 21.3832 16.838C21.3055 16.8669 21.2277 16.8958 21.1477 16.9256C21.0448 16.964 20.9418 17.0025 20.8358 17.0422C20.7342 17.08 20.6326 17.1179 20.5279 17.157C19.653 17.4777 19.653 17.4777 18.9492 18.0382C18.9492 18.4371 18.9927 18.6225 19.2896 18.911C20.1488 19.1751 21.1499 18.7117 21.9759 18.449C22.2019 18.3789 22.429 18.3168 22.6581 18.2564C22.7979 18.2176 22.9378 18.1788 23.0819 18.1388C23.836 18.0645 24.5068 18.5513 25.1355 18.8906C25.2744 18.963 25.4134 19.0353 25.5525 19.1073C26.5536 19.6322 26.5536 19.6322 26.8306 19.893C26.8099 20.1109 26.8099 20.1109 26.7147 20.3294C26.4362 20.5 26.1689 20.6445 25.8744 20.7863C25.0939 21.1753 24.4011 21.6087 23.7085 22.1237C23.1637 22.3841 22.7304 22.271 22.1737 22.1122C21.8223 22.0006 21.475 21.8801 21.128 21.757C20.5125 21.5505 19.9512 21.4563 19.2969 21.5296C18.9839 21.6769 18.879 21.7708 18.7246 22.0615C18.7139 22.4047 18.8527 22.5632 19.0651 22.8389C19.7374 23.2571 20.4574 23.568 21.2672 23.6026C21.2672 23.6747 21.2672 23.7467 21.2672 23.8209C21.167 23.8481 21.0667 23.8754 20.9635 23.9035C20.549 24.047 20.2331 24.2276 19.8692 24.4619C19.7531 24.5358 19.637 24.6098 19.5174 24.686C18.8025 25.126 18.8025 25.126 18.3696 25.7848C18.3213 26.1213 18.3213 26.1213 18.3696 26.4394C18.8047 26.7124 19.1412 26.7347 19.6446 26.6576C20.0197 26.5187 20.3572 26.3344 20.7022 26.1394C20.7917 26.091 20.8812 26.0426 20.9734 25.9928C21.4703 25.7218 21.9523 25.4352 22.4263 25.1301C22.4072 25.2337 22.388 25.3372 22.3683 25.4438C22.2747 26.0812 22.1811 26.7257 22.477 27.3191C22.6979 27.5999 22.6979 27.5999 23.042 27.6873C23.3843 27.6689 23.3843 27.6689 23.5911 27.3546C23.8183 26.983 23.9316 26.6751 24.0367 26.2596C24.0734 26.1229 24.1101 25.9862 24.1479 25.8453C24.2038 25.6313 24.2589 25.4171 24.3125 25.2026C24.7232 23.577 25.4948 22.8916 26.9705 22.0359C27.3676 21.8272 27.5766 21.7445 28.0404 21.7683C28.3374 21.8569 28.3374 21.8569 28.4533 21.966C28.6668 23.7281 28.6668 23.7281 28.2274 24.3681C27.9297 24.6136 27.6256 24.8177 27.2943 25.021C27.1253 25.1571 26.9584 25.2956 26.7944 25.437C26.5476 25.6403 26.3002 25.8337 26.041 26.0235C25.6196 26.3522 25.4573 26.5231 25.3891 27.0463C25.4039 27.419 25.4039 27.419 25.6281 27.6396C26.0132 27.7922 26.1957 27.7471 26.5988 27.6396C26.9055 27.446 27.174 27.219 27.4464 26.985C27.5197 26.9239 27.5929 26.8629 27.6685 26.8C28.0091 26.5168 28.0091 26.5168 28.3374 26.2212C28.3425 26.8338 28.2441 27.1258 27.7873 27.5697C27.6081 27.7314 27.4267 27.891 27.2435 28.0488C27.0621 28.2091 26.8811 28.3699 26.7007 28.5312C26.6201 28.6011 26.5395 28.6709 26.4565 28.7429C26.1668 29.0335 26.0343 29.2699 25.9831 29.6649C25.9995 29.9314 25.9995 29.9314 26.1497 30.1286C26.4879 30.3303 26.6663 30.3215 27.0624 30.2582C27.3956 30.066 27.6898 29.8384 27.9897 29.6035C28.1439 29.494 28.2984 29.3848 28.4533 29.2762C28.4515 29.3527 28.4497 29.4291 28.4478 29.5079C28.4405 29.8557 28.436 30.2035 28.4316 30.5514C28.4287 30.6717 28.4257 30.792 28.4227 30.916C28.4216 31.0324 28.4205 31.1488 28.4193 31.2687C28.4175 31.3755 28.4157 31.4824 28.4138 31.5925C28.4607 31.9513 28.573 32.1515 28.801 32.4403C29.1266 32.6213 29.1266 32.6213 29.4964 32.6585C29.9096 32.4906 30.0561 32.3593 30.3078 32.0039C30.3276 31.7019 30.3347 31.4122 30.3295 31.1106C30.3294 31.0309 30.3293 30.9512 30.3293 30.8691C30.3247 30.3302 30.2721 29.8098 30.1919 29.2762C30.2548 29.3288 30.3177 29.3814 30.3825 29.4356C30.4654 29.5045 30.5483 29.5734 30.6337 29.6444C30.7158 29.7128 30.7978 29.7812 30.8823 29.8516C31.1997 30.1041 31.3946 30.2511 31.8145 30.2923C32.1543 30.2823 32.1543 30.2823 32.3795 30.1354C32.5735 29.8311 32.5511 29.6267 32.5099 29.2762C32.2881 28.9684 32.2881 28.9684 31.9811 28.6898C31.8229 28.5349 31.8229 28.5349 31.6615 28.3769C31.559 28.2776 31.4565 28.1783 31.3509 28.076C31.1975 27.9135 31.0451 27.75 30.8945 27.5851C30.7172 27.3915 30.5482 27.2103 30.3449 27.0408C30.0889 26.7649 30.1709 26.4609 30.1919 26.1121C30.2564 26.1688 30.3209 26.2255 30.3874 26.2839C31.3857 27.2026 31.3857 27.2026 32.6693 27.5782C33.0938 27.5713 33.0938 27.5713 33.3213 27.3123C33.3679 26.9774 33.3925 26.762 33.3213 26.4394C33.0954 26.1759 32.9135 25.9997 32.6403 25.7916C32.5722 25.7363 32.5041 25.6811 32.4339 25.6241C32.2952 25.5117 32.1557 25.4002 32.0153 25.2896C31.7261 25.0599 31.4485 24.8186 31.1698 24.5778C30.8063 24.2657 30.8063 24.2657 30.3974 24.0131C30.0716 23.7084 30.1088 23.3438 30.0977 22.9344C30.0933 22.8535 30.0889 22.7726 30.0843 22.6893C30.075 22.4848 30.0747 22.2799 30.076 22.0751C30.1919 21.966 30.1919 21.966 30.5056 21.9401C30.9383 21.9695 31.1718 22.0719 31.5474 22.2725C31.6686 22.336 31.7897 22.3995 31.9146 22.4649C32.0393 22.5321 32.1641 22.5992 32.2926 22.6684C32.5414 22.8005 32.7904 22.9322 33.0397 23.0635C33.1493 23.1224 33.259 23.1812 33.372 23.2418C33.631 23.3662 33.8487 23.4427 34.1326 23.4935C34.1509 23.6371 34.1509 23.6371 34.1696 23.7836C34.2159 24.1412 34.2634 24.4987 34.3116 24.856C34.3321 25.0103 34.3523 25.1646 34.3719 25.3189C34.4003 25.5417 34.4304 25.7642 34.4608 25.9868C34.4784 26.1205 34.496 26.2542 34.5142 26.392C34.6231 26.8895 34.792 27.2783 35.1757 27.6396C35.5273 27.6299 35.5273 27.6299 35.8712 27.5305C36.1427 27.1471 36.1342 26.9815 36.1319 26.5281C36.1325 26.4095 36.1331 26.2909 36.1337 26.1688C36.0982 25.7259 35.9963 25.3397 35.8712 24.9119C35.9674 24.9622 35.9674 24.9622 36.0656 25.0134C36.3628 25.1685 36.6603 25.3232 36.9578 25.4779C37.0586 25.5306 37.1595 25.5833 37.2634 25.6375C37.5711 25.7974 37.8798 25.9553 38.1892 26.1121C38.2926 26.1648 38.3959 26.2175 38.5024 26.2718C38.6026 26.3212 38.7027 26.3706 38.8059 26.4215C38.8949 26.4659 38.984 26.5102 39.0758 26.5559C39.5363 26.7278 40.0217 26.7412 40.5073 26.6576C40.7811 26.442 40.7811 26.442 40.8116 26.0371C40.8028 25.7387 40.774 25.6062 40.57 25.3744C39.9716 24.8936 39.3557 24.5394 38.6529 24.2096C38.552 24.161 38.4512 24.1124 38.3472 24.0623C38.102 23.9443 37.8562 23.8275 37.6097 23.7118C38.0825 23.415 38.5922 23.2641 39.1242 23.081C39.4712 22.9691 39.4712 22.9691 39.696 22.7298C39.7368 22.2879 39.6871 22.0235 39.4642 21.6387C38.4816 21.7143 37.5673 21.9426 36.618 22.1847C36.4987 22.2141 36.3794 22.2435 36.2564 22.2738C36.0952 22.3147 36.0952 22.3147 35.9308 22.3565C34.6274 22.5621 32.7144 20.7706 31.6986 20.1112C31.8892 19.7198 32.0416 19.5786 32.4447 19.3679C33.0023 19.0686 33.5422 18.75 34.081 18.4218C34.7435 18.0352 35.1092 18.0065 35.8712 18.1473C36.2374 18.2407 36.5933 18.3545 36.9505 18.4746C37.1311 18.5338 37.3118 18.5929 37.4925 18.6519C37.5708 18.6781 37.6491 18.7042 37.7298 18.7312C38.1652 18.8665 38.5557 18.9306 39.0151 18.9383C39.1158 18.9411 39.2165 18.9439 39.3202 18.9468C39.406 18.935 39.4917 18.9232 39.5801 18.911C39.8507 18.529 39.8898 18.3786 39.8119 17.9291C39.3 17.5471 38.7573 17.3421 38.1458 17.138C38.0605 17.1088 37.9751 17.0795 37.8873 17.0494C37.6791 16.9782 37.4706 16.908 37.262 16.838C37.7364 16.2844 38.4121 16.1184 39.0963 15.8752C39.7249 15.6408 40.3009 15.3748 40.7391 14.8741C40.8072 14.5189 40.8072 14.5189 40.7391 14.2194C40.6626 14.2194 40.5861 14.2194 40.5073 14.2194C40.5073 14.1474 40.5073 14.0754 40.5073 14.0012C39.6675 13.928 39.1445 14.156 38.421 14.5468C38.4321 14.4797 38.4432 14.4126 38.4545 14.3435C38.4674 14.2553 38.4802 14.1671 38.4935 14.0762C38.5069 13.9889 38.5204 13.9015 38.5342 13.8116C38.5619 13.5335 38.5619 13.5335 38.3051 13.2375C37.9728 13.2409 37.9728 13.2409 37.6097 13.3466C37.1477 13.9077 36.9101 14.5283 36.6431 15.1856C36.4325 15.5612 36.2743 15.6795 35.8712 15.856C35.8877 15.6685 35.8877 15.6685 35.9047 15.4771C35.9177 15.3102 35.9307 15.1433 35.9436 14.9764C35.9511 14.8943 35.9585 14.8122 35.9662 14.7277C36.0122 14.1029 35.973 13.5655 35.6104 13.0193C35.397 12.8859 35.397 12.8859 35.0671 12.8897C34.677 12.9961 34.677 12.9961 34.4513 13.3739C34.0199 14.3181 33.9729 15.3871 34.0167 16.4016C33.9521 16.4294 33.8876 16.4573 33.8211 16.486C33.5147 16.6389 33.2514 16.8199 32.9736 17.0153C32.4958 17.3443 32.0177 17.672 31.532 17.9904C31.4198 18.0648 31.3076 18.1392 31.192 18.2159C30.8873 18.3655 30.8873 18.3655 30.6297 18.348C30.4237 18.2564 30.4237 18.2564 30.1919 18.0382C30.0054 17.545 29.9687 17.134 30.076 16.6198C30.7031 15.6707 31.8388 14.9479 32.8083 14.3354C33.1406 14.0694 33.2816 13.8374 33.4372 13.4557C33.3694 13.0873 33.3125 12.8839 33.0025 12.6442C32.6201 12.5542 32.426 12.5751 32.0463 12.6919C31.4312 13.1076 30.9101 13.6435 30.3847 14.1538C30.1919 14.3285 30.1919 14.3285 29.96 14.4376C29.9323 14.0386 29.9322 13.8257 30.076 13.4557C30.4468 13.0627 30.8598 12.7331 31.2888 12.3979C31.5415 12.1958 31.7761 11.9788 32.0101 11.7577C32.1183 11.6562 32.1183 11.6562 32.2288 11.5527C32.4895 11.2844 32.51 11.1636 32.5389 10.7894C32.5392 10.417 32.5392 10.417 32.3868 10.1825C32.109 10.0475 31.8941 10.0365 31.5877 10.09C30.962 10.3344 30.4454 10.861 30.076 11.3826C30.0743 11.3128 30.0726 11.2429 30.0708 11.171C30.0622 10.8528 30.051 10.5347 30.0397 10.2166C30.0371 10.1067 30.0345 9.99674 30.0318 9.88349C30.0079 9.26241 29.9874 8.78982 29.4964 8.32765C29.3033 8.32322 29.11 8.32299 28.9169 8.32765ZM50.706 9.88669C49.9654 10.8055 49.622 11.8673 49.7796 13.0193C50.0493 14.2565 50.6078 15.2115 51.726 15.934C52.847 16.5485 54.0382 16.6888 55.3136 16.4514C55.8488 16.2977 56.286 16.0655 56.7339 15.7469C56.906 15.6322 56.906 15.6322 57.0816 15.5151C57.8072 14.9327 58.2856 14.0127 58.38 13.1259C58.3916 12.8921 58.3946 12.6601 58.3928 12.426C58.3923 12.344 58.3918 12.262 58.3913 12.1776C58.3714 11.2651 58.0422 10.6295 57.5452 9.85515C57.4687 9.85515 57.3922 9.85515 57.3134 9.85515C57.256 9.69312 57.256 9.69312 57.1975 9.52783C56.1144 8.63773 55.1083 8.36716 53.6878 8.39925C52.468 8.50539 51.5084 9.02553 50.706 9.88669ZM45.3753 11.8191C45.288 12.0728 45.288 12.0728 45.3753 12.3646C46.1847 13.0759 47.2771 13.1731 48.3349 13.1578C48.6913 13.1211 48.9245 13.0158 49.2001 12.801C49.1783 12.4306 49.1163 12.2849 48.8307 12.0237C48.0366 11.5751 46.1426 11.0967 45.3753 11.8191ZM59.1679 11.71C59.0905 12.028 59.0905 12.028 59.1679 12.3646C59.6467 12.8735 60.3196 13.087 61.0252 13.149C61.29 13.1641 61.5538 13.1718 61.8192 13.1761C61.9061 13.1785 61.993 13.1809 62.0826 13.1834C62.4764 13.1819 62.7003 13.1809 62.9963 12.9242C63.1355 12.6922 63.1355 12.6922 63.0651 12.4192C62.6546 11.8246 61.9538 11.6504 61.2541 11.4918C60.8066 11.4576 60.8066 11.4576 60.3559 11.4645C60.2059 11.4639 60.0559 11.4634 59.9013 11.4628C59.4998 11.4633 59.4998 11.4633 59.1679 11.71ZM48.3888 16.1288C48.0275 16.4885 47.8259 16.7904 47.773 17.2881C47.785 17.3916 47.797 17.4951 47.8093 17.6018C48.1917 17.8417 48.3749 17.8559 48.8225 17.7914C49.5211 17.5764 50.217 16.9883 50.591 16.4016C50.6839 15.999 50.6839 15.999 50.7069 15.6378C49.853 15.1432 49.1012 15.4709 48.3888 16.1288ZM57.6611 15.7469C57.4877 16.0734 57.4957 16.2534 57.5452 16.6198C57.9655 17.397 58.6402 18.2398 59.5156 18.5837C59.8731 18.6292 59.8731 18.6292 60.211 18.5837C60.481 18.2718 60.481 18.2718 60.4283 17.895C60.3164 17.4511 60.1553 17.1993 59.8633 16.838C59.7964 16.7457 59.7294 16.6535 59.6605 16.5584C59.2721 16.1623 58.8143 15.7954 58.232 15.7128C57.9876 15.7092 57.9876 15.7092 57.6611 15.7469ZM53.8363 16.838C53.1917 17.5426 53.2327 18.1146 53.2278 19.0133C53.2254 19.1213 53.223 19.2292 53.2205 19.3404C53.2057 20.1117 53.2057 20.1117 53.6045 20.7659C53.8942 20.8568 53.8942 20.8568 54.184 20.7659C54.7173 20.1204 54.6721 19.4262 54.6766 18.6451C54.679 18.5423 54.6814 18.4396 54.6838 18.3337C54.6913 17.585 54.6913 17.585 54.2999 16.9471C54.0582 16.8513 54.0582 16.8513 53.8363 16.838ZM45.1073 18.6519C45.0435 18.7103 44.9798 18.7686 44.9142 18.8288C44.6291 19.1028 44.4573 19.2766 44.4069 19.6637C44.4204 19.7394 44.434 19.815 44.4481 19.893C44.5245 19.893 44.601 19.893 44.6799 19.893C44.6799 19.965 44.6799 20.037 44.6799 20.1112C44.7564 20.1112 44.8329 20.1112 44.9117 20.1112C44.9117 20.1832 44.9117 20.2552 44.9117 20.3294C45.0662 20.5113 45.0662 20.5113 45.2594 20.6568C45.3359 20.6568 45.4124 20.6568 45.4912 20.6568C45.4912 20.7288 45.4912 20.8008 45.4912 20.875C45.8071 21.1192 45.8071 21.1192 46.1115 21.0842C46.5156 20.9524 46.7369 20.7538 47.0414 20.4726C47.1451 20.3799 47.2488 20.2873 47.3556 20.1918C47.6095 19.909 47.6095 19.909 47.5838 19.5657C47.4405 19.1819 47.2605 18.9582 46.969 18.6587C46.8799 18.5646 46.7909 18.4705 46.6991 18.3736C46.0116 17.8193 45.6669 18.0976 45.1073 18.6519ZM21.1011 19.8708C20.8355 20.2225 20.8466 20.4553 20.9195 20.875C21.3813 21.2328 21.7289 21.2311 22.3104 21.1818C22.4623 21.1692 22.6143 21.1565 22.7708 21.1435C23.4322 21.0757 24.089 20.9821 24.7444 20.875C24.7444 20.7309 24.7444 20.5869 24.7444 20.4385C24.5052 20.2445 24.5052 20.2445 24.1938 20.0908C24.0916 20.0352 23.9894 19.9796 23.8841 19.9224C23.3368 19.6687 22.863 19.6514 22.2524 19.6407C22.1006 19.6366 21.9488 19.6325 21.7924 19.6283C21.3804 19.643 21.3804 19.643 21.1011 19.8708ZM34.7121 20.0021C34.6831 20.3977 34.6831 20.3977 34.7121 20.7659C35.06 20.9541 35.3118 21.012 35.7118 21.0131C35.8128 21.0133 35.9138 21.0136 36.0178 21.0139C36.1224 21.0131 36.227 21.0122 36.3348 21.0113C36.4394 21.0122 36.5439 21.013 36.6517 21.0139C36.8032 21.0135 36.8032 21.0135 36.9578 21.0131C37.0495 21.0128 37.1412 21.0126 37.2357 21.0123C37.5277 20.9804 37.7122 20.9181 37.9574 20.7659C38.0829 20.4484 38.0829 20.4484 38.0733 20.1112C37.9108 19.8776 37.795 19.8039 37.5129 19.7226C37.0633 19.6369 36.6109 19.6501 36.1537 19.6475C36.0536 19.6453 35.9536 19.643 35.8506 19.6407C35.7544 19.6401 35.6583 19.6396 35.5592 19.639C35.4717 19.638 35.3842 19.6369 35.2941 19.6359C34.9923 19.686 34.891 19.7703 34.7121 20.0021ZM21.0517 30.1064C20.9794 30.1835 20.9071 30.2606 20.8326 30.34C20.7591 30.416 20.6856 30.4919 20.6099 30.5702C20.4322 30.7895 20.4322 30.7895 20.4704 31.0258C20.5836 31.265 20.7114 31.4421 20.8906 31.6425C20.9473 31.7082 21.0041 31.7738 21.0626 31.8415C21.3167 32.0431 21.5213 32.0739 21.8468 32.113C21.9865 31.9624 22.1237 31.8097 22.2597 31.6561C22.3746 31.5289 22.3746 31.5289 22.4919 31.3991C22.6843 31.142 22.6843 31.142 22.6531 30.848C22.5199 30.5328 22.3852 30.419 22.0931 30.2241C22.0121 30.1682 21.9311 30.1124 21.8477 30.0549C21.5125 29.8762 21.3464 29.8663 21.0517 30.1064Z" fill="white"/>
<path d="M174.634 41.509C174.74 41.5092 174.846 41.5095 174.955 41.5098C175.122 41.5094 175.122 41.5094 175.291 41.5091C175.66 41.5085 176.029 41.5089 176.398 41.5093C176.654 41.5093 176.909 41.5091 177.164 41.509C177.701 41.5088 178.237 41.5091 178.773 41.5097C179.462 41.5104 180.15 41.51 180.838 41.5092C181.366 41.5087 181.894 41.5089 182.421 41.5092C182.675 41.5093 182.929 41.5092 183.183 41.5089C183.537 41.5086 183.892 41.5091 184.246 41.5098C184.352 41.5095 184.457 41.5093 184.566 41.509C184.997 41.5106 185.338 41.5252 185.75 41.6546C185.776 41.9593 185.776 41.9593 185.75 42.296C185.243 42.6142 184.852 42.5896 184.265 42.5878C184.156 42.5884 184.046 42.5891 183.934 42.5898C183.571 42.5915 183.209 42.5914 182.847 42.5911C182.595 42.5916 182.343 42.5922 182.092 42.5928C181.564 42.5937 181.036 42.5937 180.508 42.593C179.832 42.5923 179.156 42.5945 178.479 42.5974C177.959 42.5993 177.439 42.5994 176.92 42.599C176.67 42.5991 176.421 42.5998 176.171 42.6011C175.823 42.6026 175.474 42.6018 175.125 42.6003C175.022 42.6013 174.919 42.6023 174.813 42.6033C174.242 42.5979 173.9 42.5514 173.487 42.1677C173.805 41.548 173.884 41.5118 174.634 41.509Z" fill="white"/>
<path d="M101.271 41.4932C101.382 41.4927 101.493 41.4923 101.608 41.4918C101.976 41.4907 102.344 41.4914 102.712 41.4923C102.968 41.4921 103.223 41.4919 103.478 41.4916C104.014 41.4912 104.549 41.4917 105.084 41.4929C105.771 41.4944 106.459 41.4936 107.146 41.492C107.673 41.4911 108.2 41.4914 108.728 41.4921C108.981 41.4922 109.235 41.492 109.488 41.4914C109.842 41.4908 110.195 41.4918 110.549 41.4932C110.654 41.4927 110.76 41.4921 110.868 41.4916C111.593 41.4971 111.593 41.4971 111.897 41.7829C111.845 42.1196 111.845 42.1196 111.76 42.4243C111.197 42.5721 110.653 42.5709 110.072 42.5696C109.957 42.5697 109.843 42.5699 109.725 42.5701C109.347 42.5703 108.97 42.5695 108.592 42.5686C108.464 42.5685 108.335 42.5684 108.203 42.5682C105.436 42.5654 102.671 42.5042 99.9055 42.4243C99.8606 42.2126 99.8156 42.001 99.7693 41.7829C100.28 41.4622 100.679 41.4903 101.271 41.4932Z" fill="white"/>
<path d="M166.111 39.6343C166.415 39.8698 166.546 40.0238 166.674 40.3719C166.674 40.4989 166.674 40.6259 166.674 40.7567C166.404 40.7567 166.134 40.7567 165.856 40.7567C165.766 40.5874 165.676 40.4181 165.583 40.2436C165.186 40.2222 165.186 40.2222 164.766 40.2436C164.322 40.6618 164.363 41.21 164.357 41.7829C164.485 42.2116 164.485 42.2116 164.766 42.5525C165.084 42.5577 165.402 42.5579 165.72 42.5525C165.765 42.3408 165.81 42.1292 165.856 41.9111C165.631 41.9111 165.406 41.9111 165.175 41.9111C165.175 41.6995 165.175 41.4878 165.175 41.2698C165.669 41.2698 166.164 41.2698 166.674 41.2698C166.688 41.5181 166.699 41.7667 166.708 42.0153C166.714 42.1537 166.72 42.2921 166.727 42.4347C166.674 42.809 166.674 42.809 166.424 43.043C165.857 43.3321 165.404 43.3628 164.766 43.3221C164.19 43.1135 163.864 42.9162 163.54 42.4242C163.348 41.635 163.334 40.8668 163.676 40.1153C164.307 39.3873 165.213 39.2666 166.111 39.6343Z" fill="white"/>
<path d="M159.588 39.4742C159.973 39.4467 159.973 39.4467 160.406 39.4742C160.621 39.6586 160.621 39.6586 160.779 39.9142C160.866 40.0513 160.866 40.0513 160.955 40.1912C161.013 40.288 161.07 40.3847 161.129 40.4844C161.22 40.628 161.22 40.628 161.312 40.7745C161.519 41.1065 161.721 41.4385 161.904 41.7831C161.949 41.0212 161.994 40.2593 162.041 39.4742C162.311 39.4742 162.58 39.4742 162.858 39.4742C162.858 40.7018 162.858 41.9293 162.858 43.1941C162.429 43.3286 162.31 43.3492 161.904 43.1941C161.717 42.9793 161.717 42.9793 161.553 42.7045C161.493 42.6066 161.434 42.5086 161.372 42.4077C161.282 42.2533 161.282 42.2533 161.189 42.0958C161.127 41.9923 161.064 41.8889 161 41.7824C160.845 41.5269 160.693 41.2703 160.542 41.0135C160.497 41.7331 160.452 42.4527 160.406 43.1941C160.181 43.2364 159.956 43.2787 159.724 43.3223C159.588 43.1941 159.588 43.1941 159.573 42.838C159.573 42.6829 159.574 42.5277 159.575 42.3678C159.575 42.2004 159.576 42.033 159.576 41.8605C159.577 41.6824 159.578 41.5043 159.579 41.3261C159.58 41.1475 159.581 40.9689 159.581 40.7903C159.583 40.3516 159.585 39.9129 159.588 39.4742Z" fill="white"/>
<path d="M158.089 39.4741C158.314 39.4741 158.539 39.4741 158.77 39.4741C158.77 40.7017 158.77 41.9292 158.77 43.194C158.591 43.2363 158.411 43.2786 158.225 43.3222C158.089 43.194 158.089 43.194 158.074 42.8379C158.074 42.6828 158.075 42.5276 158.076 42.3677C158.076 42.2003 158.077 42.0329 158.077 41.8604C158.078 41.6823 158.079 41.5042 158.081 41.326C158.081 41.1474 158.082 40.9688 158.082 40.7901C158.084 40.3515 158.086 39.9128 158.089 39.4741Z" fill="white"/>
<path d="M154.001 39.4741C154.819 39.4741 154.819 39.4741 155.035 39.6584C155.112 39.785 155.112 39.785 155.192 39.914C155.279 40.0512 155.279 40.0512 155.368 40.1911C155.426 40.2879 155.483 40.3846 155.543 40.4843C155.633 40.6279 155.633 40.6279 155.725 40.7744C155.932 41.1064 156.135 41.4384 156.318 41.783C156.363 41.0211 156.408 40.2591 156.454 39.4741C156.724 39.4741 156.994 39.4741 157.272 39.4741C157.272 40.7017 157.272 41.9292 157.272 43.194C157.047 43.2363 156.822 43.2786 156.59 43.3222C156.263 43.0982 156.077 42.8045 155.873 42.479C155.824 42.4018 155.776 42.3246 155.725 42.2451C155.665 42.1482 155.605 42.0512 155.543 41.9513C155.349 41.6418 155.155 41.3323 154.955 41.0134C154.91 41.733 154.865 42.4526 154.819 43.194C154.41 43.3222 154.41 43.3222 154.001 43.194C154.001 41.9664 154.001 40.7389 154.001 39.4741Z" fill="white"/>
<path d="M152.23 39.4741C152.778 39.722 153.003 39.9128 153.303 40.4121C153.556 41.1929 153.519 41.8306 153.189 42.5782C152.946 42.9746 152.665 43.1333 152.23 43.3222C151.713 43.382 151.39 43.3673 150.91 43.1779C150.387 42.7789 150.09 42.4475 149.997 41.8025C149.973 41.1799 149.994 40.7397 150.28 40.1716C150.888 39.5684 151.335 39.3707 152.23 39.4741ZM151.021 40.356C150.777 40.9925 150.732 41.684 150.977 42.3281C151.139 42.6036 151.139 42.6036 151.608 42.6729C152.078 42.724 152.078 42.724 152.349 42.5206C152.695 42.0143 152.71 41.4681 152.639 40.8851C152.481 40.582 152.346 40.3528 152.094 40.1155C151.492 40.0385 151.492 40.0385 151.021 40.356Z" fill="white"/>
<path d="M148.551 39.4741C148.821 39.4741 149.09 39.4741 149.368 39.4741C149.368 40.7017 149.368 41.9292 149.368 43.194C148.96 43.3222 148.96 43.3222 148.551 43.194C148.551 41.9664 148.551 40.7389 148.551 39.4741Z" fill="white"/>
<path d="M144.872 39.4741C145.906 39.4741 146.94 39.4741 148.006 39.4741C148.006 39.6858 148.006 39.8974 148.006 40.1155C147.601 40.1155 147.196 40.1155 146.779 40.1155C146.779 41.1314 146.779 42.1473 146.779 43.194C146.234 43.3222 146.234 43.3222 145.962 43.194C145.962 42.1781 145.962 41.1622 145.962 40.1155C145.602 40.1155 145.242 40.1155 144.872 40.1155C144.872 39.9038 144.872 39.6922 144.872 39.4741Z" fill="white"/>
<path d="M143.509 39.4741C143.779 39.4741 144.049 39.4741 144.327 39.4741C144.327 40.7017 144.327 41.9292 144.327 43.194C144.057 43.194 143.787 43.194 143.509 43.194C143.509 41.9664 143.509 40.7389 143.509 39.4741Z" fill="white"/>
<path d="M140.597 39.4419C141.272 39.4501 141.698 39.5395 142.283 39.8588C142.75 40.3217 142.946 40.6603 142.998 41.3018C142.95 41.9801 142.773 42.4692 142.266 42.9618C141.772 43.2542 141.373 43.2522 140.81 43.2259C140.715 43.2236 140.621 43.2212 140.523 43.2189C140.292 43.2129 140.061 43.2037 139.83 43.1938C139.827 42.6847 139.824 42.1755 139.823 41.6664C139.822 41.493 139.821 41.3197 139.82 41.1464C139.818 40.8977 139.818 40.6491 139.817 40.4004C139.816 40.2506 139.815 40.1008 139.815 39.9465C139.84 39.3815 140.053 39.4512 140.597 39.4419ZM140.648 40.1153C140.648 40.9619 140.648 41.8085 140.648 42.6807C141.411 42.7484 141.411 42.7484 141.78 42.4963C142.113 42.0215 142.157 41.5757 142.147 41.0132C142.009 40.5053 141.937 40.4116 141.465 40.1153C141.196 40.1153 140.926 40.1153 140.648 40.1153Z" fill="white"/>
<path d="M136.015 39.474C136.4 39.4442 136.4 39.4442 136.832 39.474C137.05 39.6742 137.05 39.6742 137.21 39.951C137.269 40.0494 137.328 40.1478 137.389 40.2492C137.447 40.3532 137.505 40.4572 137.565 40.5643C137.657 40.7203 137.657 40.7203 137.751 40.8795C137.901 41.1364 138.049 41.3954 138.195 41.6546C138.24 40.935 138.285 40.2154 138.331 39.474C138.601 39.474 138.871 39.474 139.149 39.474C139.149 40.7016 139.149 41.9291 139.149 43.1939C138.924 43.2362 138.699 43.2785 138.467 43.3221C138.058 42.8623 137.728 42.3918 137.411 41.8711C137.328 41.734 137.244 41.5969 137.158 41.4557C137.096 41.352 137.033 41.2484 136.969 41.1415C136.853 41.7933 136.82 42.4048 136.832 43.0656C136.608 43.1503 136.383 43.2349 136.151 43.3221C136.015 43.1939 136.015 43.1939 135.999 42.8378C136 42.6827 136.001 42.5275 136.001 42.3676C136.002 42.2002 136.002 42.0328 136.003 41.8603C136.004 41.6822 136.005 41.5041 136.006 41.3259C136.007 41.1473 136.008 40.9687 136.008 40.79C136.01 40.3514 136.012 39.9127 136.015 39.474Z" fill="white"/>
<path d="M134.473 39.6184C134.996 40.0174 135.293 40.3488 135.386 40.9938C135.41 41.6164 135.389 42.0566 135.104 42.6247C134.418 43.3046 134.418 43.3046 133.815 43.3387C133.247 43.3094 132.944 43.2383 132.481 42.9133C131.937 42.2152 131.875 41.6486 131.989 40.8089C132.12 40.2655 132.387 39.8889 132.855 39.5542C133.43 39.3996 133.921 39.4005 134.473 39.6184ZM132.881 40.5002C132.705 41.1553 132.64 41.8269 133.017 42.4243C133.107 42.5089 133.197 42.5936 133.29 42.6808C133.771 42.6802 133.771 42.6802 134.243 42.5525C134.641 42.008 134.584 41.3901 134.516 40.7568C134.396 40.3528 134.396 40.3528 134.107 40.1154C133.529 40.0246 133.239 40.0614 132.881 40.5002Z" fill="white"/>
<path d="M130.956 39.6343C131.26 39.8699 131.391 40.0238 131.518 40.3719C131.518 40.4989 131.518 40.6259 131.518 40.7567C131.248 40.7567 130.979 40.7567 130.701 40.7567C130.611 40.5874 130.521 40.4181 130.428 40.2436C130.113 40.2436 129.799 40.2436 129.474 40.2436C129.257 40.6526 129.324 41.0939 129.329 41.5424C129.33 41.6391 129.331 41.7358 129.331 41.8355C129.333 42.0745 129.335 42.3135 129.338 42.5525C129.698 42.5525 130.057 42.5525 130.428 42.5525C130.518 42.3832 130.608 42.2139 130.701 42.0394C130.97 42.0394 131.24 42.0394 131.518 42.0394C131.453 42.5918 131.292 42.841 130.837 43.1938C130.344 43.3486 129.993 43.3635 129.474 43.3221C128.922 43.0475 128.622 42.835 128.384 42.296C128.162 41.4732 128.249 40.7457 128.657 39.9871C129.241 39.3313 130.163 39.3098 130.956 39.6343Z" fill="white"/>
<path d="M123.479 39.474C123.762 39.4692 124.045 39.4658 124.328 39.463C124.486 39.4609 124.644 39.4589 124.806 39.4568C125.379 39.479 125.714 39.5863 126.204 39.8588C126.422 40.269 126.41 40.6964 126.34 41.1415C126.068 41.5263 126.068 41.5263 125.795 41.7829C125.846 41.8618 125.897 41.9406 125.949 42.0219C126.013 42.1256 126.078 42.2292 126.144 42.336C126.209 42.4387 126.274 42.5414 126.341 42.6472C126.477 42.9373 126.477 42.9373 126.34 43.3221C125.966 43.258 125.966 43.258 125.523 43.0656C125.36 42.8072 125.241 42.5432 125.115 42.2674C124.988 42 124.988 42 124.603 41.9111C124.502 41.9111 124.401 41.9111 124.296 41.9111C124.296 42.3344 124.296 42.7577 124.296 43.1939C124.071 43.2429 123.843 43.2854 123.615 43.3221C123.479 43.1939 123.479 43.1939 123.463 42.8378C123.464 42.6827 123.465 42.5275 123.465 42.3676C123.466 42.2002 123.466 42.0328 123.467 41.8603C123.468 41.6822 123.469 41.504 123.47 41.3259C123.471 41.1473 123.472 40.9687 123.472 40.79C123.474 40.3514 123.476 39.9127 123.479 39.474ZM124.296 40.1154C124.296 40.4963 124.296 40.8773 124.296 41.2698C124.93 41.3043 124.93 41.3043 125.523 41.1415C125.523 40.8452 125.523 40.5489 125.523 40.2436C125.12 40.054 124.74 40.1076 124.296 40.1154Z" fill="white"/>
<path d="M121.844 39.4741C122.113 39.4741 122.383 39.4741 122.661 39.4741C122.661 40.7017 122.661 41.9292 122.661 43.194C122.436 43.2363 122.212 43.2786 121.98 43.3222C121.844 43.194 121.844 43.194 121.828 42.8379C121.829 42.6828 121.83 42.5276 121.83 42.3677C121.831 42.2003 121.831 42.0329 121.832 41.8604C121.833 41.6823 121.834 41.5042 121.835 41.326C121.836 41.1474 121.836 40.9688 121.837 40.7901C121.839 40.3515 121.841 39.9128 121.844 39.4741Z" fill="white"/>
<path d="M119.604 39.4661C119.768 39.47 119.768 39.47 119.936 39.4741C120.5 40.6942 120.974 41.9365 121.435 43.1939C120.788 43.3382 120.788 43.3382 120.481 43.1939C120.396 42.8011 120.396 42.8011 120.345 42.4243C119.85 42.4243 119.355 42.4243 118.846 42.4243C118.801 42.6783 118.756 42.9323 118.71 43.1939C118.44 43.2363 118.17 43.2786 117.892 43.3222C117.756 43.0657 117.756 43.0657 117.863 42.7206C117.92 42.5777 117.977 42.4348 118.036 42.2875C118.097 42.1327 118.158 41.9778 118.222 41.8183C118.254 41.7376 118.287 41.6568 118.32 41.5737C118.42 41.3269 118.518 41.0796 118.615 40.8322C119.156 39.4764 119.156 39.4764 119.604 39.4661ZM119.527 40.5002C119.459 40.6871 119.391 40.8742 119.323 41.0614C119.285 41.1656 119.247 41.2698 119.208 41.3771C119.105 41.6473 119.105 41.6473 119.118 41.9112C119.433 41.9112 119.748 41.9112 120.072 41.9112C120.034 41.7239 119.994 41.5369 119.953 41.35C119.92 41.1938 119.92 41.1938 119.886 41.0344C119.818 40.7328 119.818 40.7328 119.527 40.5002Z" fill="white"/>
<path d="M170.08 16.8984C171.384 16.8984 172.688 16.8984 174.032 16.8984C174.032 19.2689 174.032 21.6393 174.032 24.0816C176.55 24.0816 179.068 24.0816 181.662 24.0816C181.662 21.7111 181.662 19.3407 181.662 16.8984C182.921 16.8984 184.18 16.8984 185.478 16.8984C185.597 17.3468 185.631 17.6696 185.631 18.1249C185.632 18.3426 185.632 18.3426 185.632 18.5647C185.632 18.8027 185.632 18.8027 185.632 19.0456C185.632 19.2968 185.632 19.2968 185.632 19.5532C185.633 20.0122 185.633 20.4711 185.632 20.9301C185.632 21.4101 185.632 21.8901 185.632 22.37C185.633 23.1756 185.632 23.9812 185.632 24.7868C185.631 25.7193 185.631 26.6518 185.632 27.5843C185.633 28.3843 185.633 29.1843 185.632 29.9844C185.632 30.4625 185.632 30.9406 185.632 31.4187C185.633 31.951 185.632 32.4832 185.632 33.0155C185.632 33.175 185.632 33.3344 185.632 33.4987C185.632 33.6428 185.632 33.7868 185.631 33.9353C185.631 34.1242 185.631 34.1242 185.631 34.317C185.614 34.5998 185.614 34.5998 185.478 34.728C184.219 34.728 182.96 34.728 181.662 34.728C181.617 32.1883 181.572 29.6485 181.526 27.0318C179.053 27.0318 176.58 27.0318 174.032 27.0318C174.033 27.5766 174.035 28.1215 174.036 28.6828C174.037 29.1161 174.038 29.5494 174.039 29.9827C174.039 30.4407 174.04 30.8987 174.042 31.3567C174.044 31.8817 174.044 32.4067 174.045 32.9317C174.046 33.0966 174.046 33.2615 174.047 33.4314C174.047 33.6586 174.047 33.6586 174.047 33.8905C174.047 34.0246 174.048 34.1588 174.048 34.297C174.032 34.5998 174.032 34.5998 173.895 34.728C173.625 34.7408 173.353 34.7448 173.082 34.7451C172.917 34.7452 172.752 34.7454 172.582 34.7456C172.409 34.7451 172.235 34.7446 172.056 34.7441C171.795 34.7448 171.795 34.7448 171.529 34.7456C171.282 34.7453 171.282 34.7453 171.03 34.7451C170.877 34.7449 170.725 34.7448 170.567 34.7446C170.216 34.728 170.216 34.728 170.08 34.5998C170.067 34.3709 170.064 34.1415 170.064 33.9123C170.064 33.7632 170.063 33.6141 170.063 33.4605C170.064 33.2954 170.064 33.1303 170.065 32.9603C170.065 32.7859 170.065 32.6114 170.065 32.437C170.065 31.9621 170.065 31.4872 170.066 31.0123C170.067 30.5166 170.067 30.0208 170.067 29.525C170.068 28.5856 170.069 27.6461 170.07 26.7067C170.072 25.6374 170.073 24.5681 170.073 23.4989C170.075 21.2987 170.077 19.0986 170.08 16.8984Z" fill="white"/>
<path d="M157.544 16.8984C158.803 16.8984 160.062 16.8984 161.359 16.8984C162.161 18.8198 162.929 20.7519 163.693 22.6866C163.958 23.3569 164.223 24.0272 164.488 24.6974C164.521 24.7824 164.555 24.8675 164.589 24.9551C165.069 26.167 165.551 27.3776 166.037 28.5873C166.138 28.8387 166.238 29.0902 166.339 29.3417C166.372 29.4233 166.405 29.5049 166.438 29.5889C166.503 29.7514 166.569 29.9139 166.634 30.0764C166.792 30.4719 166.951 30.8672 167.11 31.2624C167.287 31.7007 167.463 32.1393 167.639 32.578C167.691 32.7071 167.743 32.8363 167.797 32.9693C167.845 33.0889 167.893 33.2085 167.942 33.3317C167.983 33.4348 168.025 33.5379 168.068 33.6441C168.172 33.9584 168.172 33.9584 168.309 34.728C166.96 34.728 165.611 34.728 164.221 34.728C163.909 33.9445 163.604 33.1603 163.31 32.3711C163.266 32.2555 163.222 32.1399 163.177 32.0208C163.136 31.9105 163.095 31.8002 163.053 31.6866C163.015 31.587 162.978 31.4874 162.939 31.3848C162.858 31.1365 162.858 31.1365 162.858 30.8799C160.655 30.9222 158.452 30.9646 156.181 31.0082C155.789 32.0882 155.789 32.0882 155.399 33.1686C155.35 33.3031 155.301 33.4376 155.25 33.5761C155.2 33.7138 155.15 33.8515 155.099 33.9934C154.955 34.3432 154.955 34.3432 154.683 34.728C154.289 34.7717 154.289 34.7717 153.792 34.7656C153.614 34.7644 153.437 34.7631 153.254 34.7619C153.066 34.7586 152.878 34.7554 152.69 34.7521C152.501 34.7502 152.312 34.7484 152.122 34.7468C151.659 34.7423 151.195 34.7359 150.731 34.728C150.819 34.0878 150.956 33.567 151.225 32.9723C151.556 32.2299 151.849 31.4795 152.127 30.7181C152.576 29.499 153.048 28.2892 153.531 27.0818C153.661 26.7585 153.79 26.4349 153.919 26.1114C154.337 25.0636 154.76 24.0181 155.194 22.9758C155.517 22.1976 155.828 21.4174 156.113 20.6263C156.571 19.3768 157.055 18.1376 157.544 16.8984ZM159.452 21.3879C158.961 22.4726 158.568 23.5869 158.174 24.7051C158.063 25.0213 157.951 25.3372 157.838 25.6531C157.767 25.8556 157.695 26.0582 157.623 26.2607C157.59 26.3544 157.557 26.448 157.522 26.5445C157.283 27.2266 157.283 27.2266 157.135 27.9297C157.29 28.1044 157.29 28.1044 157.7 28.0725C157.889 28.0725 158.079 28.0718 158.268 28.0705C158.418 28.0702 158.418 28.0702 158.57 28.0699C158.89 28.0692 159.209 28.0676 159.528 28.066C159.744 28.0653 159.96 28.0648 160.176 28.0642C160.707 28.0628 161.238 28.0606 161.768 28.058C161.686 27.3699 161.513 26.7568 161.275 26.1028C161.24 26.0044 161.205 25.9059 161.169 25.8044C161.057 25.4918 160.944 25.1795 160.831 24.8672C160.757 24.6587 160.682 24.4501 160.607 24.2414C160.469 23.8551 160.33 23.469 160.191 23.083C159.988 22.5187 159.788 21.9534 159.588 21.3879C159.543 21.3879 159.498 21.3879 159.452 21.3879Z" fill="white"/>
<path d="M136.094 16.8778C136.257 16.8765 136.42 16.8753 136.588 16.874C136.855 16.8732 136.855 16.8732 137.128 16.8724C137.312 16.8717 137.497 16.8709 137.682 16.8702C138.071 16.8688 138.46 16.8681 138.848 16.8676C139.341 16.8669 139.834 16.8639 140.328 16.8602C140.71 16.8578 141.093 16.8571 141.476 16.8569C141.744 16.8564 142.012 16.854 142.281 16.8516C144.213 16.856 145.884 17.1845 147.495 18.2052C148.543 19.214 148.937 20.3222 149.002 21.7086C148.971 22.7556 148.586 23.7892 147.87 24.5947C146.961 25.3643 146.961 25.3643 146.507 25.3643C146.507 25.449 146.507 25.5336 146.507 25.6208C146.597 25.6261 146.687 25.6314 146.779 25.6369C147.757 25.9053 148.459 26.6046 148.96 27.4166C149.543 28.5423 149.54 30.0377 149.206 31.2372C148.733 32.4565 147.876 33.4255 146.651 34.0271C144.369 34.9313 141.866 34.7648 139.441 34.7531C139.07 34.7517 138.7 34.7518 138.33 34.7519C137.888 34.7518 137.446 34.7507 137.004 34.7496C136.838 34.7494 136.672 34.7493 136.501 34.7492C136.35 34.7483 136.198 34.7475 136.042 34.7467C135.841 34.7459 135.841 34.7459 135.636 34.7452C135.333 34.728 135.333 34.728 135.197 34.5998C135.184 34.3728 135.18 34.1454 135.18 33.9181C135.18 33.7702 135.179 33.6224 135.179 33.47C135.179 33.3064 135.179 33.1427 135.18 32.9741C135.179 32.8012 135.179 32.6282 135.179 32.4553C135.178 31.9843 135.178 31.5134 135.179 31.0425C135.179 30.5507 135.179 30.0589 135.179 29.5671C135.178 28.7411 135.179 27.9151 135.179 27.0891C135.18 26.1328 135.18 25.1765 135.179 24.2202C135.179 23.4005 135.178 22.5809 135.179 21.7613C135.179 21.2711 135.179 20.781 135.179 20.2908C135.178 19.8301 135.179 19.3694 135.179 18.9087C135.18 18.6579 135.179 18.4072 135.179 18.1565C135.179 18.0086 135.18 17.8608 135.18 17.7084C135.18 17.5791 135.18 17.4498 135.18 17.3166C135.213 16.7519 135.574 16.8809 136.094 16.8778ZM139.149 19.7204C139.149 21.2019 139.149 22.6834 139.149 24.2099C139.819 24.4201 140.508 24.3726 141.21 24.3782C141.435 24.3838 141.435 24.3838 141.665 24.3895C142.688 24.3969 143.627 24.3118 144.411 23.6348C144.983 23.0195 145.048 22.5021 145.037 21.7176C144.981 21.0867 144.77 20.6597 144.301 20.1934C143.255 19.6026 142.1 19.6892 140.92 19.7044C140.043 19.7123 140.043 19.7123 139.149 19.7204ZM139.149 26.9035C139.149 28.5121 139.149 30.1206 139.149 31.7778C139.874 31.7858 140.599 31.7937 141.346 31.8019C141.573 31.8054 141.801 31.8089 142.035 31.8125C142.217 31.8136 142.4 31.8146 142.582 31.8154C142.675 31.8174 142.768 31.8193 142.863 31.8214C143.698 31.8218 144.22 31.5958 144.838 31.0804C145.469 30.4034 145.467 29.8654 145.451 28.9819C145.395 28.3151 145.204 27.9009 144.753 27.3765C144.113 26.8985 143.494 26.8677 142.702 26.8785C142.566 26.8789 142.566 26.8789 142.428 26.8793C142.093 26.8806 141.758 26.8842 141.423 26.8875C140.297 26.8954 140.297 26.8954 139.149 26.9035Z" fill="white"/>
<path d="M123.151 16.884C123.304 16.8847 123.457 16.8854 123.616 16.8861C123.781 16.8865 123.947 16.8869 124.117 16.8873C124.292 16.8884 124.466 16.8895 124.645 16.8906C124.82 16.8912 124.995 16.8917 125.175 16.8923C125.609 16.8938 126.043 16.896 126.476 16.8986C127.152 18.3636 127.754 19.8546 128.307 21.364C128.925 23.0467 129.599 24.7088 130.309 26.3585C130.581 26.9943 130.833 27.6341 131.071 28.2821C131.372 29.0939 131.688 29.8995 132.015 30.7022C132.057 30.8045 132.099 30.9068 132.142 31.0123C132.312 31.4312 132.483 31.85 132.656 32.2685C132.784 32.5799 132.911 32.8916 133.037 33.2035C133.076 33.2978 133.116 33.3921 133.156 33.4893C133.336 33.935 133.426 34.2445 133.426 34.7282C132.871 34.7441 132.315 34.7557 131.76 34.7634C131.571 34.7666 131.382 34.771 131.193 34.7766C130.922 34.7844 130.65 34.7877 130.379 34.7908C130.215 34.7942 130.052 34.7975 129.883 34.801C129.474 34.7282 129.474 34.7282 129.231 34.4496C129.065 34.0862 128.917 33.7268 128.787 33.3508C128.744 33.2274 128.701 33.104 128.656 32.9768C128.603 32.822 128.55 32.6671 128.495 32.5075C128.323 32.0128 128.152 31.5181 127.975 31.0083C125.772 31.0083 123.569 31.0083 121.299 31.0083C120.849 32.2359 120.399 33.4634 119.936 34.7282C118.587 34.7282 117.238 34.7282 115.848 34.7282C116.155 33.4295 116.155 33.4295 116.34 32.9691C116.382 32.8643 116.423 32.7596 116.466 32.6516C116.534 32.4861 116.534 32.4861 116.602 32.3171C116.65 32.1977 116.698 32.0782 116.747 31.9552C116.904 31.5645 117.061 31.1742 117.219 30.7839C117.329 30.5106 117.439 30.2372 117.548 29.9639C117.775 29.398 118.003 28.8324 118.231 28.2668C118.562 27.4447 118.892 26.6221 119.222 25.7994C119.566 24.9408 119.911 24.0823 120.256 23.224C120.427 22.7971 120.599 22.3701 120.77 21.9431C120.849 21.7471 120.927 21.551 121.006 21.3551C121.473 20.1925 121.923 19.026 122.35 17.8499C122.389 17.7438 122.428 17.6377 122.468 17.5284C122.502 17.4347 122.536 17.3409 122.571 17.2444C122.714 16.8989 122.739 16.901 123.151 16.884ZM124.569 21.3881C123.903 22.9913 123.338 24.6183 122.797 26.2623C122.766 26.3575 122.735 26.4526 122.702 26.5506C122.551 27.01 122.401 27.4697 122.252 27.9299C122.409 28.106 122.409 28.106 122.829 28.0727C123.025 28.0727 123.22 28.0719 123.415 28.0707C123.518 28.0705 123.621 28.0703 123.726 28.0701C124.055 28.0694 124.385 28.0678 124.714 28.0661C124.936 28.0655 125.159 28.0649 125.381 28.0644C125.928 28.063 126.475 28.0608 127.022 28.0581C126.722 26.9509 126.35 25.8708 125.964 24.7886C125.863 24.5059 125.763 24.2231 125.663 23.9402C125.598 23.757 125.532 23.5739 125.467 23.3908C125.438 23.3079 125.409 23.225 125.378 23.1397C125.167 22.5505 124.939 21.9691 124.705 21.3881C124.66 21.3881 124.615 21.3881 124.569 21.3881Z" fill="white"/>
<path d="M112.903 18.1571C113.735 18.8722 114.443 19.9415 114.622 21.0031C114.622 21.3418 114.622 21.6804 114.622 22.0293C113.363 22.0293 112.104 22.0293 110.807 22.0293C110.672 21.606 110.537 21.1827 110.398 20.7466C110.048 20.2438 109.694 19.865 109.083 19.6523C107.905 19.4309 106.708 19.4784 105.629 19.977C105.522 20.0114 105.415 20.0458 105.305 20.0812C104.941 20.3315 104.906 20.5949 104.811 21.0031C104.719 21.6474 104.695 22.0032 105.106 22.5519C106.085 23.5783 107.783 23.9628 109.12 24.4023C111.218 25.0939 113.301 25.9567 114.349 27.9297C114.9 29.0701 114.864 30.4676 114.486 31.6496C113.892 33.0376 112.856 33.8309 111.438 34.4425C108.884 35.2536 105.851 35.0908 103.397 34.0627C101.853 33.2623 100.74 32.036 100.239 30.4506C100.157 29.9899 100.169 29.5512 100.178 29.0842C100.719 29.081 101.26 29.0787 101.801 29.0771C101.985 29.0765 102.169 29.0756 102.353 29.0745C102.617 29.073 102.881 29.0723 103.146 29.0717C103.384 29.0706 103.384 29.0706 103.628 29.0696C103.993 29.0842 103.993 29.0842 104.13 29.2125C104.173 29.3934 104.212 29.5753 104.249 29.7576C104.357 30.2425 104.517 30.5929 104.811 31.0082C104.811 31.0929 104.811 31.1776 104.811 31.2648C105.793 31.7654 106.635 31.9714 107.741 31.9622C107.85 31.9648 107.96 31.9674 108.072 31.97C108.865 31.9694 109.461 31.8065 110.125 31.393C110.623 30.8944 110.714 30.4114 110.698 29.732C110.643 29.2139 110.451 28.8602 110.04 28.5108C109.372 28.0254 108.734 27.7312 107.937 27.4808C107.708 27.405 107.479 27.329 107.25 27.2528C107.138 27.2158 107.025 27.1788 106.909 27.1406C104.522 26.3458 102.223 25.4818 101.004 23.2579C100.542 22.1997 100.596 20.974 100.981 19.9018C101.255 19.3387 101.643 18.8913 102.086 18.4377C102.154 18.3665 102.222 18.2952 102.293 18.2218C104.971 15.7642 110.137 16.1768 112.903 18.1571Z" fill="white"/>
</svg>
